<svg width="111" height="106" viewBox="0 0 111 106" fill="none" xmlns="http://www.w3.org/2000/svg">
<rect x="15" width="96" height="96" rx="48" fill="#4CAF4F"/>
<path d="M68.1894 51.1904C69.6526 51.1904 70.9791 51.7848 71.9387 52.7443L71.9989 52.81C72.9227 53.7653 73.4919 55.065 73.4919 56.4935C73.4919 57.9561 72.8976 59.2826 71.9387 60.2422L71.873 60.3024C70.9177 61.2262 69.618 61.7954 68.1894 61.7954C66.7298 61.7954 65.4045 61.2011 64.4438 60.2422C63.4807 59.2826 62.8863 57.9561 62.8863 56.4935C62.8863 55.0339 63.4807 53.7086 64.4402 52.7479C65.4045 51.7848 66.7298 51.1904 68.1894 51.1904ZM70.3788 54.3042C69.8197 53.745 69.0445 53.3983 68.1894 53.3983C67.3331 53.3983 66.5574 53.7444 65.9977 54.3018C65.4403 54.8615 65.0942 55.6372 65.0942 56.4935C65.0942 57.348 65.4409 58.1232 66 58.6823C66.5574 59.2421 67.3331 59.5876 68.1894 59.5876C69.0219 59.5876 69.7785 59.2606 70.3567 58.7056C70.9379 58.1232 71.2846 57.348 71.2846 56.4935C71.2846 55.6605 70.957 54.9039 70.3788 54.3042ZM57.807 34.2046C59.2666 34.2046 60.5919 34.799 61.5526 35.7579C62.5158 36.7175 63.1101 38.044 63.1101 39.5066C63.1101 40.9661 62.5158 42.2915 61.5568 43.2522C60.5919 44.2153 59.2666 44.8097 57.807 44.8097C56.3438 44.8097 55.0173 44.2153 54.0578 43.2558L53.9975 43.1901C53.0738 42.2348 52.5045 40.9351 52.5045 39.5066C52.5045 38.044 53.0988 36.7175 54.0578 35.7579L54.124 35.6977C55.0788 34.7739 56.3784 34.2046 57.807 34.2046ZM59.9976 37.3166C59.439 36.758 58.6633 36.4125 57.807 36.4125C56.9746 36.4125 56.2179 36.7395 55.6403 37.2945C55.0591 37.8769 54.7124 38.652 54.7124 39.5066C54.7124 40.3396 55.0394 41.0962 55.5943 41.6739C56.1767 42.2551 56.9519 42.6018 57.807 42.6018C58.6633 42.6018 59.439 42.2557 59.9988 41.6983C60.5561 41.1386 60.9022 40.3629 60.9022 39.5066C60.9022 38.652 60.5555 37.8769 59.9976 37.3166ZM71.7352 34.142C72.0914 33.6521 72.78 33.5441 73.27 33.9003C73.7599 34.2566 73.8679 34.9446 73.5116 35.4351L54.2613 61.8581C53.905 62.348 53.217 62.456 52.7265 62.0998C52.2366 61.7435 52.1286 61.0555 52.4848 60.565L71.7352 34.142ZM65.4278 24.728C64.6491 24.2554 63.8333 24.0018 62.9979 24.0018C62.1816 24.0018 61.3838 24.2435 60.5955 24.7125C59.7034 25.2561 58.8716 26.0546 58.094 27.0797C57.7963 27.4712 57.2604 27.6287 56.7872 27.4294C55.6021 26.9294 54.4832 26.6549 53.4712 26.6322C52.5743 26.6119 51.7574 26.7891 51.0246 27.1979C50.2781 27.6299 49.6981 28.2589 49.2595 29.0603C48.7762 29.9446 48.4539 31.048 48.294 32.3244C48.2379 32.819 47.8482 33.2314 47.3315 33.294C46.0521 33.4546 44.9452 33.7768 44.059 34.2613C43.257 34.7005 42.6275 35.2805 42.211 36.002C41.7957 36.7192 41.6089 37.5547 41.6298 38.473C41.6518 39.4654 41.9168 40.5604 42.3984 41.7204C42.6335 42.1864 42.5087 42.77 42.0773 43.0959C41.0521 43.8722 40.2543 44.7052 39.728 45.5711C39.2536 46.3492 39 47.1649 39 48.0009C39 48.834 39.2542 49.6485 39.728 50.4278C40.2543 51.2937 41.0521 52.1261 42.0773 52.903C42.4688 53.2008 42.6263 53.7367 42.427 54.2093C41.9275 55.395 41.6524 56.5138 41.6298 57.5259C41.6095 58.4233 41.7867 59.2409 42.1961 59.9736C42.6281 60.7201 43.257 61.3002 44.0584 61.7388C44.9428 62.2221 46.0467 62.5443 47.3231 62.7043C47.8184 62.7603 48.2302 63.15 48.2934 63.6668C48.4533 64.9468 48.7756 66.0537 49.2601 66.9398C49.6987 67.7412 50.2787 68.3702 51.0002 68.7867C51.7174 69.202 52.5528 69.3888 53.4712 69.3679C54.4641 69.3458 55.5585 69.0809 56.7186 68.5993C57.1852 68.3642 57.7682 68.4889 58.094 68.9203C58.8716 69.9455 59.704 70.7439 60.5692 71.2703C61.3492 71.7441 62.1643 71.9983 62.9979 71.9983C63.8321 71.9983 64.6473 71.7441 65.4272 71.2703C66.2924 70.7439 67.1255 69.9455 67.9024 68.9203C68.2002 68.5289 68.736 68.3714 69.2092 68.5707C70.3943 69.0707 71.5132 69.3446 72.5252 69.3679C73.4221 69.3882 74.2396 69.211 74.9724 68.8022C75.7189 68.3702 76.2983 67.7412 76.7369 66.9398C77.2203 66.0555 77.5425 64.9515 77.7024 63.6757C77.7585 63.1804 78.1482 62.7687 78.6649 62.7055C79.9443 62.5455 81.0513 62.2233 81.9374 61.7388C82.7394 61.2996 83.3689 60.7195 83.7854 59.9981C84.2014 59.2808 84.3875 58.4454 84.3667 57.5271C84.3446 56.5341 84.0796 55.4397 83.5981 54.2797C83.363 53.813 83.4877 53.23 83.9191 52.9042C84.9443 52.1279 85.7421 51.2949 86.2684 50.429C86.7428 49.6509 86.9964 48.8352 86.9964 47.9991C86.9964 47.1661 86.7422 46.3516 86.2684 45.5723C85.7451 44.7124 84.9616 43.8883 83.9573 43.1209C83.5384 42.8309 83.3642 42.2777 83.5694 41.7896C84.0689 40.6045 84.344 39.4857 84.3667 38.4736C84.3869 37.5767 84.2091 36.7586 83.8004 36.0259C83.3683 35.2793 82.7394 34.6999 81.938 34.2613C81.0536 33.778 79.9503 33.4558 78.6733 33.2958C78.178 33.2397 77.7663 32.8501 77.703 32.3333C77.5431 31.0533 77.2209 29.9464 76.7363 29.0603C76.2977 28.2589 75.7177 27.6299 74.9963 27.2134C74.279 26.7981 73.4436 26.6113 72.5252 26.6322C71.5329 26.6543 70.4379 26.9192 69.2779 27.4008C68.8118 27.6359 68.2282 27.5112 67.9024 27.0797C67.1255 26.0546 66.2924 25.2561 65.4278 24.728Z" fill="white"/>
<rect x="1.33594" y="2.86914" width="102" height="102" rx="51" stroke="#4CAF4F" stroke-width="2" stroke-dasharray="8 4"/>
</svg>
