<svg width="112" height="106" viewBox="0 0 112 106" fill="none" xmlns="http://www.w3.org/2000/svg">
<rect x="16" y="10" width="96" height="96" rx="48" fill="#096CE3"/>
<path fill-rule="evenodd" clip-rule="evenodd" d="M63.9933 32.4292C78.1131 32.4292 89.5587 43.876 89.5587 57.9946C89.5587 72.1132 78.1131 83.5588 63.9933 83.5588C49.8747 83.5588 38.4297 72.1132 38.4297 57.9946C38.4297 43.876 49.8747 32.4292 63.9933 32.4292ZM75.3999 48.532C74.7917 47.3095 74.0572 46.328 73.1956 45.585C72.3334 44.8368 71.379 44.2694 70.3353 43.8757C69.2933 43.4794 68.2039 43.2002 67.0608 43.0397V39.5524H61.9691V43.0397C61.0351 43.1463 60.1179 43.3406 59.2163 43.6073C58.3147 43.8675 57.4733 44.2221 56.6849 44.6627C55.9025 45.0968 55.2074 45.6321 54.6062 46.2602C54.0043 46.8818 53.5304 47.6095 53.1891 48.4385C52.8479 49.2666 52.6745 50.2088 52.6688 51.2576C52.6745 52.5813 52.8887 53.696 53.296 54.6129C53.7111 55.5284 54.2799 56.283 55.013 56.8709C55.7426 57.4587 56.5855 57.9263 57.5459 58.2743C58.5017 58.6219 59.5304 58.8959 60.6336 59.0885C61.7361 59.277 62.8576 59.4375 64.0142 59.5563C64.9567 59.6641 65.845 59.8127 66.6878 60.0054C67.5353 60.191 68.2839 60.446 68.9392 60.7533C69.6005 61.0676 70.1162 61.4546 70.4961 61.9221C70.8711 62.3831 71.0649 62.9452 71.0705 63.607C71.0649 64.388 70.8711 65.0564 70.4961 65.6105C70.1211 66.1659 69.6078 66.6134 68.9596 66.968C68.3045 67.3146 67.569 67.568 66.7405 67.7365C65.9127 67.8971 65.0432 67.9763 64.1359 67.9763C63.2987 67.9763 62.4646 67.8767 61.6354 67.6824C60.8073 67.4815 60.0322 67.201 59.3033 66.833C58.5766 66.4665 57.9416 66.0254 57.3932 65.505C56.844 64.9889 56.4381 64.4077 56.1566 63.7674L51.4265 65.7708C51.9011 66.8733 52.5086 67.8294 53.2368 68.6447C53.9713 69.4604 54.7937 70.1478 55.7228 70.7018C56.6449 71.2573 57.6344 71.6913 58.6954 72.0054C59.7522 72.3197 60.8414 72.5272 61.9699 72.627V76.4351H67.0616L67.0609 72.4273C68.3172 72.3342 69.5062 72.0793 70.6424 71.659C71.7793 71.2383 72.7876 70.6573 73.6761 69.9075C74.5658 69.166 75.2666 68.2709 75.7815 67.2155C76.2885 66.1667 76.5505 64.9627 76.5639 63.6078C76.5554 62.2034 76.3222 61.014 75.868 60.0516C75.4074 59.0836 74.7859 58.2881 73.9902 57.66C73.1881 57.0385 72.2794 56.5371 71.2444 56.1704C70.2157 55.8024 69.1194 55.5085 67.963 55.3025C66.8077 55.0936 65.6387 54.9209 64.4553 54.7859C63.6057 54.6928 62.7917 54.5731 62.0164 54.4397C61.2348 54.2993 60.5403 54.1121 59.9258 53.8653C59.3106 53.6185 58.8226 53.2899 58.468 52.8691C58.107 52.4484 57.9266 51.9133 57.9209 51.2583C57.9266 50.557 58.1 49.9692 58.4483 49.488C58.7959 49.0003 59.2637 48.6133 59.8583 48.318C60.4524 48.0255 61.1349 47.8176 61.8962 47.6843C62.6581 47.5509 63.4525 47.4834 64.2943 47.4902C64.9902 47.4902 65.6849 47.5713 66.3737 47.7249C67.0611 47.8772 67.7164 48.0917 68.3307 48.3668C68.9452 48.6394 69.4859 48.968 69.9605 49.3348C70.4366 49.7013 70.8031 50.1031 71.0701 50.5371L75.3999 48.532Z" fill="white"/>
<rect x="1.33594" y="1.86914" width="102" height="102" rx="51" stroke="#096CE3" stroke-width="2" stroke-dasharray="8 4"/>
</svg>
