<svg width="110" height="106" viewBox="0 0 110 106" fill="none" xmlns="http://www.w3.org/2000/svg">
<rect y="10" width="96" height="96" rx="48" fill="#CEA686"/>
<rect x="6.33594" y="1.86914" width="102" height="102" rx="51" stroke="#CEA686" stroke-width="2" stroke-dasharray="8 4"/>
<path d="M71 51.3V43.5C71 41.5 69.4 40 67.5 40H27.5C25.5 40 24 41.6 24 43.5V51.4H71V51.3Z" fill="white"/>
<path d="M24 55.2V72.6999C24 74.6999 25.6 76.1999 27.5 76.1999H67.5C69.5 76.1999 71 74.5999 71 72.6999V55.2H24ZM36.2 70.6999C35.1 70.6999 34.2 69.7999 34.2 68.6999C34.2 67.5999 35.1 66.6999 36.2 66.6999C37.3 66.6999 38.2 67.5999 38.2 68.6999C38.2 69.7999 37.3 70.6999 36.2 70.6999ZM47.5 70.6999C46.4 70.6999 45.5 69.7999 45.5 68.6999C45.5 67.5999 46.4 66.6999 47.5 66.6999C48.6 66.6999 49.5 67.5999 49.5 68.6999C49.5 69.7999 48.6 70.6999 47.5 70.6999ZM58.8 70.8C57.7 70.8 56.8 69.9 56.8 68.8C56.8 67.7 57.7 66.8 58.8 66.8C59.9 66.8 60.8 67.7 60.8 68.8C60.8 69.9 59.9 70.8 58.8 70.8Z" fill="white"/>
</svg>
