<svg width="412" height="403" viewBox="0 0 412 403" fill="none" xmlns="http://www.w3.org/2000/svg">
<g opacity="0.05">
<mask id="mask0_267_3913" style="mask-type:luminance" maskUnits="userSpaceOnUse" x="0" y="0" width="412" height="403">
<path d="M274.462 0.0117188L411.997 0.163386L138.447 402.073L0 401.997L274.462 0.0117188Z" fill="white"/>
</mask>
<g mask="url(#mask0_267_3913)">
<path d="M37.6992 427.629L312.161 25.6431L236.783 -25.6193L-37.6791 376.366L37.6992 427.629ZM138.457 356.574H0.00996399V447.496H138.457V356.574ZM374.318 -25.3918L100.768 376.518L176.222 427.629L449.772 25.7189L374.318 -25.3918ZM274.472 45.5111L412.007 45.6628V-45.3356L274.548 -45.4873V45.5111H274.472ZM0.00996399 401.997L-37.6791 376.366L-86.2344 447.421H-0.0659866V401.997H0.00996399ZM138.457 402.073V447.572H162.62L176.222 427.629L138.533 402.073H138.457ZM412.007 0.163559L449.696 25.7189L498.024 -45.2598H412.007V0.163559ZM274.472 0.0118942V-45.4873H250.384L236.783 -25.6193L274.472 0.0118942Z" fill="white"/>
</g>
<path d="M324.611 402.073C372.872 402.073 411.995 363.029 411.995 314.866C411.995 266.703 372.872 227.659 324.611 227.659C276.35 227.659 237.227 266.703 237.227 314.866C237.227 363.029 276.35 402.073 324.611 402.073Z" fill="white"/>
<mask id="mask1_267_3913" style="mask-type:luminance" maskUnits="userSpaceOnUse" x="1" y="0" width="176" height="175">
<path d="M89.056 174.579C137.317 174.579 176.44 135.535 176.44 87.3718C176.44 39.2089 137.317 0.165039 89.056 0.165039C40.7951 0.165039 1.67188 39.2089 1.67188 87.3718C1.67188 135.535 40.7951 174.579 89.056 174.579Z" fill="white"/>
</mask>
<g mask="url(#mask1_267_3913)">
<path d="M89.0618 45.6645C112.162 45.6645 130.854 64.3191 130.854 87.3721H222.038C222.038 14.1184 162.464 -45.3339 89.0618 -45.3339V45.6645ZM47.2694 87.3721C47.2694 64.3191 65.962 45.6645 89.0618 45.6645V-45.3339C15.6591 -45.3339 -43.9141 14.1184 -43.9141 87.3721H47.2694ZM89.0618 129.08C65.962 129.08 47.2694 110.425 47.2694 87.3721H-43.9141C-43.9141 160.626 15.6591 220.078 89.0618 220.078V129.08ZM130.854 87.3721C130.854 110.425 112.162 129.08 89.0618 129.08V220.078C162.464 220.078 222.038 160.626 222.038 87.3721H130.854Z" fill="white"/>
</g>
</g>
</svg>
