<svg width="412" height="403" viewBox="0 0 412 403" fill="none" xmlns="http://www.w3.org/2000/svg">
<g opacity="0.05">
<mask id="mask0_379_11944" style="mask-type:luminance" maskUnits="userSpaceOnUse" x="0" y="0" width="412" height="403">
<path d="M274.462 0.447266L411.997 0.598933L138.447 402.508L0 402.433L274.462 0.447266Z" fill="white"/>
</mask>
<g mask="url(#mask0_379_11944)">
<path d="M37.6992 428.064L312.161 26.0787L236.783 -25.1838L-37.6791 376.802L37.6992 428.064ZM138.457 357.009H0.00996399V447.932H138.457V357.009ZM374.318 -24.9563L100.768 376.953L176.222 428.064L449.772 26.1545L374.318 -24.9563ZM274.472 45.9466L412.007 46.0983V-44.9001L274.548 -45.0518V45.9466H274.472ZM0.00996399 402.433L-37.6791 376.802L-86.2344 447.856H-0.0659866V402.433H0.00996399ZM138.457 402.509V448.008H162.62L176.222 428.064L138.533 402.509H138.457ZM412.007 0.599106L449.696 26.1545L498.024 -44.8243H412.007V0.599106ZM274.472 0.447441V-45.0518H250.384L236.783 -25.1838L274.472 0.447441Z" fill="black"/>
</g>
<path d="M324.611 402.508C372.872 402.508 411.995 363.464 411.995 315.302C411.995 267.139 372.872 228.095 324.611 228.095C276.35 228.095 237.227 267.139 237.227 315.302C237.227 363.464 276.35 402.508 324.611 402.508Z" fill="black"/>
<mask id="mask1_379_11944" style="mask-type:luminance" maskUnits="userSpaceOnUse" x="1" y="0" width="176" height="176">
<path d="M89.056 175.014C137.317 175.014 176.44 135.97 176.44 87.8074C176.44 39.6444 137.317 0.600586 89.056 0.600586C40.7951 0.600586 1.67188 39.6444 1.67188 87.8074C1.67188 135.97 40.7951 175.014 89.056 175.014Z" fill="white"/>
</mask>
<g mask="url(#mask1_379_11944)">
<path d="M89.0618 46.1C112.162 46.1 130.854 64.7546 130.854 87.8076H222.038C222.038 14.5538 162.464 -44.8984 89.0618 -44.8984V46.1ZM47.2694 87.8076C47.2694 64.7546 65.962 46.1 89.0618 46.1V-44.8984C15.6591 -44.8984 -43.9141 14.5538 -43.9141 87.8076H47.2694ZM89.0618 129.515C65.962 129.515 47.2694 110.86 47.2694 87.8076H-43.9141C-43.9141 161.061 15.6591 220.514 89.0618 220.514V129.515ZM130.854 87.8076C130.854 110.86 112.162 129.515 89.0618 129.515V220.514C162.464 220.514 222.038 161.061 222.038 87.8076H130.854Z" fill="black"/>
</g>
</g>
</svg>
