<svg width="109" height="108" viewBox="0 0 109 108" fill="none" xmlns="http://www.w3.org/2000/svg">
<rect width="96" height="96" rx="48" fill="black"/>
<path d="M41.7342 40.1801C41.1632 41.4134 40.1745 42.4069 38.9473 42.9893C40.1745 43.5632 41.1632 44.5567 41.7342 45.79C42.3137 44.5567 43.3024 43.5632 44.5211 42.9893C43.3024 42.4069 42.3137 41.4134 41.7342 40.1801ZM41.7342 40.1801C41.1632 41.4134 40.1745 42.4069 38.9473 42.9893C40.1745 43.5632 41.1632 44.5567 41.7342 45.79C42.3137 44.5567 43.3024 43.5632 44.5211 42.9893C43.3024 42.4069 42.3137 41.4134 41.7342 40.1801ZM72.7226 49.8757C73.2595 49.4046 73.5663 48.7194 73.5663 48C73.5663 47.2806 73.2595 46.5954 72.7226 46.1243L68.9811 42.8011C68.751 42.587 68.6572 42.2616 68.7595 41.9532L70.3447 37.1997C70.5748 36.5231 70.4981 35.7779 70.1401 35.1527C69.7822 34.5275 69.1771 34.0907 68.4782 33.9537L63.5861 32.9516C63.2793 32.8916 63.0322 32.6432 62.9725 32.3349L61.9753 27.4187C61.839 26.7164 61.4043 26.1083 60.7822 25.7485C60.16 25.3888 59.4185 25.3117 58.7452 25.543L54.0151 27.136C53.7083 27.2388 53.3844 27.136 53.1713 26.9133L49.8645 23.1534C49.3957 22.6138 48.7139 22.3054 47.998 22.3054C47.2821 22.3054 46.6003 22.6138 46.1315 23.1534L42.8247 26.9133C42.6116 27.1446 42.2878 27.2388 41.9809 27.136L37.2508 25.543C36.5775 25.3117 35.836 25.3888 35.2139 25.7485C34.5917 26.1083 34.157 26.7163 34.0207 27.4187L33.0235 32.3349C32.9639 32.6432 32.7167 32.8916 32.4099 32.9516L27.5178 33.9537C26.819 34.0907 26.2139 34.5275 25.8559 35.1527C25.4979 35.7779 25.4212 36.5231 25.6513 37.1997L27.2365 41.9532C27.3388 42.2615 27.2451 42.587 27.0149 42.8011L23.2735 46.1243C22.7365 46.5954 22.4297 47.2806 22.4297 48C22.4297 48.7194 22.7365 49.4046 23.2735 49.8757L27.0149 53.1989C27.2451 53.413 27.3388 53.7384 27.2365 54.0468L25.6513 58.8003C25.4212 59.4769 25.4979 60.2221 25.8559 60.8473C26.2138 61.4725 26.8189 61.9093 27.5178 62.0464L32.4099 63.0484C32.7167 63.1084 32.9639 63.3568 33.0235 63.6651L34.0207 68.5813C34.157 69.2836 34.5917 69.8917 35.2139 70.2515C35.8275 70.6112 36.5775 70.6883 37.2508 70.457L41.9809 68.864C42.2878 68.7612 42.6116 68.8554 42.8247 69.0867L46.1315 72.8467C46.6003 73.3862 47.2821 73.6946 47.998 73.6946C48.7139 73.6946 49.3957 73.3863 49.8645 72.8467L53.1713 69.0867C53.3844 68.8554 53.7168 68.7612 54.0151 68.864L58.7452 70.457C59.4185 70.6883 60.1685 70.6112 60.7822 70.2515C61.4043 69.8918 61.839 69.2837 61.9753 68.5813L62.9725 63.6651C63.0321 63.3568 63.2793 63.1084 63.5861 63.0484L68.4782 62.0464C69.177 61.9093 69.7822 61.4725 70.1401 60.8473C70.4981 60.2221 70.5748 59.4769 70.3447 58.8003L68.7595 54.0468C68.6572 53.7385 68.751 53.413 68.9811 53.1989L72.7226 49.8757ZM36.5606 36.5058C39.6202 33.4225 43.6853 31.7266 48.0151 31.7266C52.3449 31.7266 56.4015 33.4139 59.4609 36.4801C59.7933 36.8142 59.7933 37.3623 59.4609 37.6964C59.1285 38.0304 58.5831 38.0304 58.2507 37.6964C55.5149 34.9471 51.8841 33.4397 48.0147 33.4397C44.1452 33.4397 40.4978 34.9556 37.7618 37.7135C37.5913 37.8848 37.3782 37.9619 37.1566 37.9619C36.935 37.9619 36.722 37.8848 36.56 37.7135C36.2276 37.3795 36.2276 36.8399 36.56 36.5059L36.5606 36.5058ZM36.893 41.8588L37.0208 41.7903L37.1657 41.7646C38.8872 41.4734 40.2339 40.1202 40.5236 38.3901L40.5406 38.2531L40.6088 38.1246C40.8389 37.7135 41.2651 37.4565 41.7338 37.4565C42.2026 37.4565 42.6287 37.7135 42.8588 38.1246L42.927 38.2531L42.9526 38.3901C43.2338 40.1202 44.5889 41.4734 46.302 41.7646L46.4469 41.7903L46.5747 41.8588C46.9838 42.0815 47.2395 42.5183 47.2395 42.9894C47.2395 43.4605 46.9838 43.8887 46.5747 44.1114L46.4469 44.1799L46.302 44.2056C44.5889 44.4968 43.2338 45.85 42.9526 47.5801L42.927 47.7171L42.8588 47.8456C42.6287 48.2567 42.2026 48.5137 41.7338 48.5137C41.2651 48.5137 40.839 48.2568 40.6088 47.8456L40.5406 47.7171L40.5236 47.5801C40.2338 45.85 38.8872 44.4968 37.1657 44.2056L37.0208 44.1799L36.893 44.1114C36.4839 43.8887 36.2281 43.4519 36.2281 42.9894C36.2281 42.5269 36.4838 42.0815 36.893 41.8588ZM59.4524 59.5108C56.3927 62.5771 52.3277 64.2729 47.9979 64.2729C43.668 64.2729 39.6028 62.577 36.5433 59.5108C36.2109 59.1683 36.2109 58.6287 36.5433 58.2946C36.8842 57.9606 37.4212 57.9606 37.7536 58.2946C40.4893 61.0439 44.1288 62.5599 47.9977 62.5599C51.8667 62.5599 55.5065 61.0439 58.2419 58.2946C58.5743 57.9606 59.1113 57.9606 59.4522 58.2946C59.7846 58.6286 59.7848 59.1683 59.4524 59.5108ZM58.8899 52.4107L58.6854 52.4878C56.2479 53.1044 54.3558 55.0058 53.7507 57.4468L53.674 57.6524C53.3757 58.2005 52.7962 58.5431 52.174 58.5431C51.5519 58.5431 50.9808 58.2005 50.6825 57.6524L50.5973 57.4468C49.9922 55.0058 48.1001 53.1044 45.6626 52.4878L45.4666 52.4107C44.9126 52.1109 44.5802 51.537 44.5802 50.9118C44.5802 50.2866 44.9126 49.7042 45.4666 49.4044L45.6626 49.3273C48.1001 48.7107 49.9922 46.8092 50.5973 44.3683L50.6825 44.1627C50.9808 43.6146 51.5519 43.272 52.174 43.272C52.7962 43.272 53.3757 43.6146 53.674 44.1627L53.7507 44.3683C54.3558 46.8092 56.2479 48.7107 58.6854 49.3273L58.8899 49.4044C59.4354 49.7042 59.7763 50.278 59.7763 50.9118C59.7763 51.5456 59.4354 52.1109 58.8899 52.4107ZM52.1743 45.0792C51.3646 47.897 49.1828 50.0981 46.3701 50.912C49.1826 51.7257 51.3644 53.9183 52.1743 56.7449C52.984 53.9185 55.1743 51.7259 57.9785 50.912C55.1745 50.0984 52.9842 47.8972 52.1743 45.0792ZM41.7342 45.79C42.3137 44.5567 43.3024 43.5632 44.5211 42.9893C43.3024 42.4069 42.3137 41.4134 41.7342 40.1801C41.1632 41.4134 40.1745 42.4069 38.9473 42.9893C40.1745 43.5632 41.1632 44.5567 41.7342 45.79Z" fill="white"/>
<rect x="5.33594" y="4.86914" width="102" height="102" rx="51" stroke="black" stroke-width="2" stroke-dasharray="8 4"/>
</svg>
