<svg width="436" height="436" viewBox="0 0 436 436" fill="none" xmlns="http://www.w3.org/2000/svg">
<path d="M218 218V1" stroke="#5E95D7"/>
<path d="M218 218L424.379 150.943" stroke="#5E95D7"/>
<path d="M218 218L345.549 393.557" stroke="#5E95D7"/>
<path d="M218.003 218L90.4531 393.557" stroke="#5E95D7"/>
<path d="M217.996 218L11.6172 150.943" stroke="#5E95D7"/>
<path d="M218 435C337.846 435 435 337.846 435 218C435 98.1542 337.846 1 218 1C98.1542 1 1 98.1542 1 218C1 337.846 98.1542 435 218 435Z" stroke="#5E95D7" stroke-dasharray="8 4"/>
<path d="M217.998 391.6C313.875 391.6 391.598 313.877 391.598 218C391.598 122.123 313.875 44.3999 217.998 44.3999C122.122 44.3999 44.3984 122.123 44.3984 218C44.3984 313.877 122.122 391.6 217.998 391.6Z" stroke="#5E95D7"/>
<path d="M217.997 348.2C289.904 348.2 348.197 289.908 348.197 218C348.197 146.093 289.904 87.8 217.997 87.8C146.089 87.8 87.7969 146.093 87.7969 218C87.7969 289.908 146.089 348.2 217.997 348.2Z" stroke="#5E95D7"/>
<path d="M218.003 304.8C265.941 304.8 304.803 265.938 304.803 218C304.803 170.062 265.941 131.2 218.003 131.2C170.065 131.2 131.203 170.062 131.203 218C131.203 265.938 170.065 304.8 218.003 304.8Z" stroke="#5E95D7"/>
<path d="M218.002 261.4C241.971 261.4 261.402 241.969 261.402 218C261.402 194.031 241.971 174.6 218.002 174.6C194.032 174.6 174.602 194.031 174.602 218C174.602 241.969 194.032 261.4 218.002 261.4Z" stroke="#5E95D7"/>
<g style="mix-blend-mode:multiply">
<path d="M217.85 118.637L397.161 160.895L293.971 322.559L138.285 327.723L75.3594 171.652L217.85 118.637Z" fill="#D0E2F4"/>
<path d="M217.85 118.637L397.161 160.895L293.971 322.559L138.285 327.723L75.3594 171.652L217.85 118.637Z" stroke="#5E95D7" stroke-width="2"/>
</g>
<g style="mix-blend-mode:multiply">
<path d="M218.003 56.8455L348.507 175.596L273.336 294.16L191.742 254.144L51.0781 163.763L218.003 56.8455Z" fill="#D0E2F4"/>
<path d="M218.003 56.8455L348.507 175.596L273.336 294.16L191.742 254.144L51.0781 163.763L218.003 56.8455Z" stroke="#096CE3" stroke-width="2"/>
</g>
</svg>
