<svg width="48" height="49" viewBox="0 0 48 49" fill="none" xmlns="http://www.w3.org/2000/svg">
<path d="M21.1997 17.65C20.7578 17.65 20.3997 18.0081 20.3997 18.45V18.551C20.3997 19.6252 21.274 20.5014 22.3502 20.5014H23.1997V21.3014C23.1997 21.7433 23.5578 22.1014 23.9997 22.1014C24.4416 22.1014 24.7997 21.7433 24.7997 21.3014V20.5014H25.6493C26.7236 20.5014 27.5997 19.6271 27.5997 18.551V16.85C27.5997 15.7757 26.7255 14.8995 25.6493 14.8995H22.3483C22.1559 14.8995 21.9978 14.7433 21.9978 14.5491V12.8481C21.9978 12.6557 22.154 12.4976 22.3483 12.4976H25.6493C25.8417 12.4976 25.9997 12.6538 25.9997 12.8481C25.9997 13.29 26.3578 13.6481 26.7997 13.6481C27.2416 13.6481 27.5997 13.29 27.5997 12.8481C27.5997 11.7738 26.7255 10.8976 25.6493 10.8976H24.7997V10.0976C24.7997 9.65572 24.4416 9.29762 23.9997 9.29762C23.5578 9.29762 23.1997 9.65572 23.1997 10.0976V10.8976H22.3502C21.2759 10.8976 20.3997 11.7719 20.3997 12.8481V14.5491C20.3997 15.6233 21.274 16.4995 22.3502 16.4995H25.6512C25.8436 16.4995 26.0017 16.6557 26.0017 16.85V18.551C26.0017 18.7433 25.8455 18.9014 25.6512 18.9014H22.3502C22.1578 18.9014 21.9997 18.7452 21.9997 18.551V18.45C21.9997 18.0081 21.6416 17.65 21.1997 17.65Z" fill="white"/>
<path d="M11.2894 21.6843C11.518 21.949 11.8494 22.1014 12.1999 22.1014C12.5504 22.1014 12.8818 21.949 13.1104 21.6843L17.2399 16.8805C17.5485 16.5205 17.6189 16.029 17.4208 15.5967C17.2227 15.1662 16.8056 14.8976 16.3294 14.8976H15.2361C15.6418 10.4195 19.417 6.89762 23.9999 6.89762C28.8513 6.89762 32.7999 10.8462 32.7999 15.6976C32.7999 20.549 28.8513 24.4976 23.9999 24.4976C21.2437 24.4976 18.6989 23.2424 17.017 21.0538C16.7485 20.7033 16.2456 20.6386 15.8951 20.9071C15.5446 21.1757 15.4799 21.6786 15.7485 22.029C16.6989 23.2671 17.937 24.29 19.3256 24.991C20.7827 25.7262 22.3561 26.0976 23.9999 26.0976C25.4037 26.0976 26.7656 25.8233 28.0475 25.2805C29.2856 24.7567 30.398 24.0062 31.3523 23.0519C32.3065 22.0976 33.057 20.9852 33.5808 19.7471C34.1237 18.4652 34.398 17.1033 34.398 15.6995C34.398 14.2957 34.1237 12.9338 33.5808 11.6519C33.057 10.4138 32.3065 9.30143 31.3523 8.34715C30.398 7.39286 29.2856 6.64238 28.0475 6.11857C26.7656 5.57572 25.4018 5.30143 23.9999 5.30143C22.5961 5.30143 21.2342 5.57572 19.9523 6.11857C18.7142 6.64238 17.6018 7.39286 16.6475 8.34715C15.6932 9.30143 14.9427 10.4138 14.4189 11.6519C13.8761 12.9338 13.6018 14.2957 13.6018 15.6995C13.6018 15.7681 13.6113 15.8348 13.6265 15.8995C13.7123 16.231 14.0056 16.4805 14.3599 16.4976C14.3732 16.4976 14.3865 16.4995 14.4018 16.4995H15.4589L12.2018 20.2881L8.94464 16.4995H10.0018C10.4437 16.4995 10.8018 16.1414 10.8018 15.6995C10.8018 8.55857 16.6075 2.63857 23.7446 2.50143C27.238 2.43476 30.5656 3.77572 33.1142 6.27476C35.7123 8.82333 37.2018 12.3586 37.2018 15.9757V18.8995C37.2018 19.3414 37.5599 19.6995 38.0018 19.6995C38.4437 19.6995 38.8018 19.3414 38.8018 18.8995V15.9757C38.8018 13.9129 38.3885 11.9052 37.5732 10.0081C36.7846 8.17381 35.6608 6.53381 34.2342 5.13381C32.8494 3.77572 31.2513 2.71667 29.4875 1.98905C27.6475 1.23096 25.7046 0.863337 23.7142 0.903337C21.7465 0.941432 19.8437 1.35857 18.0532 2.14524C16.3237 2.90524 14.7713 3.97762 13.4418 5.33191C12.1104 6.68619 11.0666 8.25953 10.3389 10.0043C9.6875 11.5662 9.31226 13.21 9.22274 14.9033H8.07226C7.59798 14.9033 7.17893 15.1719 6.98083 15.6024C6.78274 16.0329 6.85131 16.5262 7.16179 16.8862L11.2894 21.6843Z" fill="white"/>
<path d="M44.8 14.8995H41.2C40.7581 14.8995 40.4 15.2576 40.4 15.6995C40.4 16.1414 40.7581 16.4995 41.2 16.4995H44.8C45.6819 16.4995 46.4 17.2176 46.4 18.0995V35.6995H1.6V18.0995C1.6 17.2176 2.3181 16.4995 3.2 16.4995H4.4C4.8419 16.4995 5.2 16.1414 5.2 15.6995C5.2 15.2576 4.8419 14.8995 4.4 14.8995H3.2C1.43619 14.8995 0 16.3357 0 18.0995V44.8995C0 46.6633 1.43619 48.0995 3.2 48.0995H44.8C46.5638 48.0995 48 46.6633 48 44.8995V18.0995C48 16.3357 46.5638 14.8995 44.8 14.8995ZM46.4 37.2995V41.6995H1.6V37.2995H46.4ZM44.8 46.4995H3.2C2.3181 46.4995 1.6 45.7814 1.6 44.8995V43.2995H46.4V44.8995C46.4 45.7814 45.6819 46.4995 44.8 46.4995Z" fill="white"/>
<path d="M33.2003 26.8995V30.8995C33.2003 31.7814 33.9184 32.4995 34.8003 32.4995H41.2003C42.0822 32.4995 42.8003 31.7814 42.8003 30.8995V26.8995C42.8003 26.0176 42.0822 25.2995 41.2003 25.2995H34.8003C33.9184 25.2995 33.2003 26.0176 33.2003 26.8995ZM41.2022 30.8995H34.8003V26.8995H41.2003L41.2022 30.8995Z" fill="white"/>
<path d="M7.1373 30.6786C6.82492 30.991 6.82492 31.4976 7.1373 31.81C7.29349 31.9662 7.4973 32.0443 7.70301 32.0443C7.90682 32.0443 8.11254 31.9662 8.26873 31.81C8.89349 31.1852 9.90682 31.1852 10.5316 31.81C10.844 32.1224 11.3506 32.1224 11.663 31.81C11.9754 31.4976 11.9754 30.991 11.663 30.6786C10.4154 29.431 8.38492 29.431 7.1373 30.6786Z" fill="white"/>
<path d="M4.59236 29.2652C4.90474 29.5776 5.41141 29.5776 5.72379 29.2652C6.70665 28.2824 8.01141 27.7414 9.39998 27.7414C10.7886 27.7414 12.0952 28.2824 13.0762 29.2652C13.2324 29.4214 13.4362 29.4995 13.6419 29.4995C13.8457 29.4995 14.0514 29.4214 14.2076 29.2652C14.52 28.9529 14.52 28.4462 14.2076 28.1338C13.5581 27.4843 12.8019 26.9833 11.9581 26.6405C11.1428 26.311 10.2819 26.1433 9.39998 26.1433C8.51808 26.1433 7.65712 26.311 6.84189 26.6405C5.99808 26.9833 5.23998 27.4862 4.59236 28.1338C4.27998 28.4462 4.27998 28.9529 4.59236 29.2652Z" fill="white"/>
</svg>
