<svg width="48" height="57" viewBox="0 0 48 57" fill="none" xmlns="http://www.w3.org/2000/svg">
<path fill-rule="evenodd" clip-rule="evenodd" d="M8.99096 4.0984V0.890323C8.99096 0.399193 9.39181 0 9.88498 0H47.106C47.5991 0 48 0.399193 48 0.890323L47.9951 33.7304C47.9951 36.6409 46.6492 38.7482 44.4118 40.9837L40.7677 44.6224C40.0243 45.3651 40.0801 46.3377 40.0729 47.3151H42.0674C42.5606 47.3151 42.9614 47.7143 42.9614 48.2055V56.1097C42.9614 56.6008 42.5606 57 42.0674 57H22.9892C22.496 57 22.0952 56.6008 22.0952 56.1097V48.2055C22.0952 47.7143 22.496 47.3151 22.9892 47.3151H25.1611L25.1829 36.9992C25.1854 35.3782 25.6664 33.9242 26.6455 32.654L0.894018 32.6516C0.40085 32.6516 0 32.2524 0 31.7613V9.0873C0 8.59617 0.40085 8.19698 0.894018 8.19698H4.49683V4.9889C4.49683 4.49777 4.89768 4.09858 5.39085 4.09858L8.99096 4.0984ZM15.3197 19.8244V21.6051H17.1004V25.2293H15.3197V27.01H23.3195V25.2293H18.8883V21.6051H21.2302V19.8244H18.8883V18.8035C18.8883 17.3083 19.5831 15.6196 21.1525 15.6196C21.9396 15.6196 22.5275 16.0309 22.9235 16.6939L24.454 15.7817C23.7422 14.5914 22.5688 13.8366 21.1525 13.8366C18.5312 13.8366 17.1003 16.2971 17.1003 18.8035V19.8244H15.3197ZM27.2333 53.4028C27.9232 53.4028 28.482 52.8463 28.482 52.1592C28.482 51.4722 27.9232 50.9133 27.2333 50.9133C26.5433 50.9133 25.9822 51.4697 25.9822 52.1592C25.9822 52.8464 26.5409 53.4028 27.2333 53.4028ZM38.2917 47.3157C38.299 46.4641 38.2772 45.7552 38.5468 44.9326C38.7339 44.3616 39.0376 43.8367 39.504 43.3697L43.1481 39.731C45.0382 37.8415 46.2141 36.1238 46.2141 33.7286V24.455H43.5053V27.6631C43.5053 28.1542 43.1044 28.5534 42.6112 28.5534H39.2854L39.3267 34.5316C39.3291 35.0203 38.9307 35.4195 38.4399 35.4219C37.9492 35.4243 37.5483 35.0276 37.5459 34.5388L37.4657 23.3954C37.456 21.8954 36.0178 21.3656 34.8371 21.7768C34.2225 21.9897 33.6904 22.4784 33.4815 23.2526L31.827 29.3808C31.7906 29.5115 31.7274 29.6349 31.6303 29.7438L28.3676 33.3656C27.425 34.4131 26.9682 35.5938 26.9658 36.9994L26.944 47.3154L38.2917 47.3157ZM23.883 49.0963V55.2197H41.1731V49.0963H23.883ZM39.2707 26.7729H41.7146V5.8796H6.28416V8.19735H38.1143C38.6075 8.19735 39.0083 8.59655 39.0083 9.08768V22.0625C39.1589 22.4545 39.244 22.8997 39.2464 23.3908L39.2707 26.7754L39.2707 26.7729ZM37.2202 20.2047V9.97787H1.78726V30.8712H28.2166L30.1528 28.7204L31.7514 22.793C32.4243 20.2962 35.1404 19.2776 37.2176 20.2042L37.2202 20.2047ZM43.5048 22.6748H46.2112V1.78151H10.7782V4.09685H42.6083C43.1015 4.09685 43.5024 4.49604 43.5024 4.98717V22.6753L43.5048 22.6748Z" fill="white"/>
</svg>
