<svg width="48" height="49" viewBox="0 0 48 49" fill="none" xmlns="http://www.w3.org/2000/svg">
<path d="M15.6138 28.6267C15.9717 28.3147 16.4229 28.1584 16.9683 28.1584C17.7061 28.1584 18.3081 28.5447 18.7739 29.3167L20.188 28.1926C19.4385 26.9207 18.3193 26.2844 16.832 26.2844C15.7075 26.2844 14.7988 26.5994 14.106 27.2297C13.4131 27.8601 13.0669 28.8625 13.0669 30.2366V32.3665H11.6016V34.0359H13.0669V37.1365H11.6699V38.925H20.1538V37.1365H15.0771V34.0359H17.9224V32.3665H15.0771V30.1345C15.0771 29.4421 15.2559 28.9392 15.6138 28.6267Z" fill="white"/>
<path d="M15.8921 21.0723C9.53271 21.0723 4.35938 26.2456 4.35938 32.605C4.35938 38.9639 9.53271 44.1372 15.8921 44.1372C22.251 44.1372 27.4243 38.9639 27.4243 32.605C27.4243 26.2456 22.251 21.0723 15.8921 21.0723ZM15.8921 42.1372C10.6357 42.1372 6.35938 37.8608 6.35938 32.605C6.35938 27.3486 10.6357 23.0723 15.8921 23.0723C21.1479 23.0723 25.4243 27.3486 25.4243 32.605C25.4243 37.8608 21.1479 42.1372 15.8921 42.1372Z" fill="white"/>
<path d="M29.8979 0.5C21.1221 0.5 11.7954 2.85449 11.7954 7.21826V13.8989C11.7954 14.0353 11.8079 14.1791 11.8292 14.3267H11.7954V17.2651C5.01489 19.0802 0 25.2601 0 32.605C0 41.3696 7.13086 48.5 15.8955 48.5C17.6591 48.5 19.3508 48.1993 20.9373 47.6667C23.6443 48.2086 26.7313 48.5 29.8979 48.5C38.6733 48.5 48 46.1455 48 41.7822V35.1016H47.989C47.9898 35.0737 48 35.048 48 35.02V28.3394H47.9579C47.9698 28.2303 48 28.1254 48 28.0137V21.333H47.9562C47.9683 21.2239 48 21.1191 48 21.0073V14.3267H47.9424C47.9632 14.1844 48 14.0458 48 13.8989V7.21826C48 2.85449 38.6733 0.5 29.8979 0.5ZM31.6365 34.6968C37.4185 34.501 43.0962 33.3039 46 31.2078V35.02C46 36.9778 39.9467 39.7009 30.0816 39.7351C30.8652 38.1826 31.3995 36.4877 31.6365 34.6968ZM31.7863 32.6898C31.7864 32.6612 31.7905 32.6336 31.7905 32.605C31.7905 30.8954 31.5118 29.2515 31.01 27.707C36.9754 27.573 42.9832 26.3646 46 24.1895V28.0137C46 29.8059 40.6149 32.3599 31.7863 32.6898ZM30.2001 25.7204C29.2225 23.6977 27.8398 21.9087 26.1418 20.4723C27.3738 20.563 28.6316 20.6172 29.8979 20.6172C36.2136 20.6172 42.7956 19.3915 46 17.0811V21.0073C46 22.9572 39.9938 25.6645 30.2001 25.7204ZM29.8979 18.6172C27.179 18.6172 24.4866 18.3936 22.1019 17.9728C20.6866 17.3702 19.1666 16.9688 17.5778 16.8008C15.2443 15.9399 13.7954 14.8322 13.7954 13.8989V10.4004C16.9998 12.7108 23.582 13.9365 29.8979 13.9365C36.2136 13.9365 42.7956 12.7108 46 10.4004V13.8989C46 15.8691 39.874 18.6172 29.8979 18.6172ZM2 32.605C2 24.9429 8.2334 18.7095 15.8955 18.7095C23.5571 18.7095 29.7905 24.9429 29.7905 32.605C29.7905 40.2666 23.5571 46.5 15.8955 46.5C8.2334 46.5 2 40.2666 2 32.605ZM29.8979 46.5C27.9236 46.5 25.9962 46.3723 24.171 46.1499C26.0314 45.0089 27.6416 43.5041 28.8945 41.7234C29.2279 41.7298 29.5597 41.7383 29.8979 41.7383C36.2136 41.7383 42.7956 40.5126 46 38.2021V41.7822C46 43.7524 39.874 46.5 29.8979 46.5ZM29.8979 11.9365C19.9214 11.9365 13.7954 9.18848 13.7954 7.21826C13.7954 5.24805 19.9214 2.5 29.8979 2.5C39.874 2.5 46 5.24805 46 7.21826C46 9.18848 39.874 11.9365 29.8979 11.9365Z" fill="white"/>
</svg>
