<svg width="48" height="33" viewBox="0 0 48 33" fill="none" xmlns="http://www.w3.org/2000/svg">
<path fill-rule="evenodd" clip-rule="evenodd" d="M1.45421 6.0231V6.5591H31.8751C32.2772 6.5591 32.6022 6.88277 32.6022 7.27861C32.6022 7.6765 32.2772 8.00017 31.8751 8.00017H1.45421V12.5357L15.3396 12.5336C15.5354 12.5295 15.725 12.6017 15.8667 12.7377C16.0063 12.8738 16.0854 13.0594 16.0854 13.2531C16.0854 13.4469 16.0063 13.6345 15.8667 13.7685C15.725 13.9046 15.5354 13.9788 15.3396 13.9726H1.45421V27.0207C1.45005 28.0948 1.88338 29.1256 2.65422 29.8801C3.43544 30.6429 4.48755 31.0655 5.5834 31.0614H42.4166C43.5124 31.0614 44.5624 30.6305 45.3354 29.8657C46.1103 29.0988 46.5458 28.0597 46.5458 26.9774V13.9726H18.2246C18.0288 13.9788 17.8392 13.9046 17.6975 13.7685C17.5559 13.6345 17.4767 13.4469 17.4767 13.2531C17.4767 13.0594 17.5559 12.8738 17.6975 12.7377C17.8392 12.6017 18.0288 12.5295 18.2246 12.5336H46.5458V8.00022H34.7623C34.3602 8.00022 34.0331 7.67655 34.0331 7.27865C34.0331 6.88283 34.3602 6.55915 34.7623 6.55915H46.5458V6.02315C46.5458 4.9408 46.1103 3.90178 45.3354 3.13483C44.5624 2.36999 43.5124 1.93912 42.4166 1.93912H5.5834C3.30216 1.93912 1.45421 3.76768 1.45421 6.0231ZM2.18614e-05 27.0204V6.0231C2.18614e-05 2.97196 2.50003 0.5 5.5835 0.5H42.4167C43.8979 0.5 45.3188 1.08139 46.3646 2.11629C47.4125 3.15325 48 4.55928 48 6.02299V26.977C48 28.4407 47.4125 29.8467 46.3646 30.8837C45.3188 31.9186 43.8979 32.5 42.4167 32.5H5.5835C4.10435 32.5041 2.6835 31.9289 1.63139 30.8981C0.58557 29.8735 -0.00413815 28.4759 2.18614e-05 27.0204ZM6.58937 20.2069C6.39354 20.211 6.20187 20.1388 6.06229 20.0028C5.92062 19.8667 5.84146 19.6812 5.84146 19.4874C5.84146 19.2936 5.92063 19.106 6.06229 18.972C6.20187 18.8359 6.39354 18.7617 6.58937 18.7679H19.7121C19.9079 18.7617 20.0996 18.8359 20.2392 18.972C20.3808 19.106 20.46 19.2936 20.46 19.4874C20.46 19.6812 20.3808 19.8667 20.2392 20.0028C20.0996 20.1388 19.9079 20.211 19.7121 20.2069H6.58937ZM6.58937 26.2678C6.39354 26.2719 6.20187 26.1977 6.06229 26.0637C5.92062 25.9276 5.84146 25.7421 5.84146 25.5462C5.84146 25.3524 5.92063 25.1669 6.06229 25.0308C6.20187 24.8968 6.39354 24.8226 6.58937 24.8267H14.8145H14.8124C15.0103 24.8226 15.1999 24.8968 15.3395 25.0308C15.4811 25.1669 15.5603 25.3524 15.5603 25.5462C15.5603 25.7421 15.4811 25.9276 15.3395 26.0637C15.1999 26.1977 15.0103 26.2719 14.8124 26.2678H6.58937ZM33.5142 18.7307C33.1788 19.0606 32.8892 19.4316 32.6517 19.8358C31.6955 21.4664 31.6955 23.4806 32.6517 25.1134C32.8892 25.5175 33.1788 25.8886 33.5163 26.2164C32.3726 26.4596 31.1809 26.1772 30.2726 25.4515C29.3622 24.7238 28.8351 23.6291 28.8351 22.4746C28.8351 21.318 29.3622 20.2233 30.2726 19.4956C31.1809 18.7699 32.3726 18.4875 33.5163 18.7308L33.5142 18.7307ZM31.7664 17.2938C32.856 17.1 33.9768 17.2484 34.9768 17.7164C36.6247 16.9454 38.558 17.0628 40.0976 18.0277C41.6372 18.9925 42.5705 20.6706 42.5705 22.4745C42.5705 24.2785 41.6372 25.9566 40.0976 26.9214C38.5581 27.8883 36.6247 28.0038 34.9768 27.2327C33.5913 27.8821 31.9892 27.9089 30.583 27.3028C29.1767 26.6988 28.1038 25.5237 27.6372 24.0785C27.1684 22.6333 27.3559 21.0603 28.1476 19.7594C28.9372 18.4606 30.258 17.5617 31.7664 17.2958L31.7664 17.2938ZM41.1205 22.4745C41.1226 23.8372 40.3913 25.101 39.1976 25.7854C38.0059 26.472 36.5351 26.4761 35.3392 25.7978C34.7455 25.4638 34.2517 24.9773 33.9059 24.3938C33.2142 23.2043 33.2142 21.7427 33.9059 20.5552C34.2517 19.9697 34.7455 19.4852 35.3392 19.1491C35.6288 18.9842 35.9371 18.8585 36.2601 18.7739C37.4205 18.4688 38.658 18.7162 39.6101 19.4398C40.5622 20.1655 41.1184 21.285 41.1205 22.4745Z" fill="white"/>
</svg>
