<svg width="49" height="51" viewBox="0 0 49 51" fill="none" xmlns="http://www.w3.org/2000/svg">
<path d="M18.5799 14.3118C19.8695 14.3118 21.0365 14.8341 21.8822 15.6798C22.7279 16.5254 23.2502 17.6925 23.2502 18.9821C23.2502 20.2716 22.7279 21.4387 21.8822 22.2844C21.0365 23.13 19.8695 23.6524 18.5799 23.6524C17.2904 23.6524 16.1233 23.13 15.2776 22.2844C14.4319 21.4387 13.9096 20.2716 13.9096 18.9821C13.9096 17.6925 14.4319 16.5254 15.2776 15.6798C16.1233 14.8341 17.2904 14.3118 18.5799 14.3118ZM24 0.5C30.6274 0.5 36.6274 3.18624 40.9705 7.52955C45.3136 11.8727 48 17.8726 48 24.5C48 31.1274 45.3138 37.1274 40.9705 41.4705C36.6273 45.8136 30.6274 48.5 24 48.5C17.3726 48.5 11.3726 45.8138 7.02955 41.4705C2.68643 37.1273 0 31.1274 0 24.5C0 17.8726 2.68624 11.8726 7.02955 7.52955C11.3727 3.18643 17.3726 0.5 24 0.5ZM39.6353 8.86473C35.6346 4.86408 30.1053 2.38816 24 2.38816C17.8927 2.38816 12.3673 4.86202 8.36473 8.86473C4.36408 12.8654 1.88816 18.3947 1.88816 24.5C1.88816 30.6053 4.36202 36.1327 8.36473 40.1353C12.3654 44.1359 17.8947 46.6118 24 46.6118C30.1053 46.6118 35.6327 44.138 39.6353 40.1353C43.6359 36.1346 46.1118 30.6053 46.1118 24.5C46.1118 18.3947 43.638 12.8673 39.6353 8.86473ZM24 4.99804C29.3858 4.99804 34.2607 7.18106 37.7907 10.711C41.3207 14.241 43.5017 19.1159 43.5017 24.5017C43.5017 29.8875 41.3206 34.7624 37.7907 38.2924C34.2607 41.8224 29.3858 44.0054 24 44.0054C18.6142 44.0054 13.7393 41.8224 10.2093 38.2924C6.67935 34.7624 4.49829 29.8875 4.49829 24.5017C4.49829 19.1159 6.68131 14.241 10.2093 10.711C13.7393 7.18106 18.6142 4.99804 24 4.99804ZM36.4555 12.0467C33.268 8.8592 28.8637 6.88865 24 6.88865C19.1363 6.88865 14.7321 8.86121 11.5445 12.0467C8.357 15.2342 6.38645 19.6385 6.38645 24.5022C6.38645 29.3657 8.359 33.7701 11.5445 36.9577C14.732 40.1452 19.1363 42.1158 24 42.1158C28.8637 42.1158 33.2679 40.1432 36.4555 36.9577C39.643 33.7702 41.6136 29.3659 41.6136 24.5022C41.6136 19.6387 39.641 15.2343 36.4555 12.0467ZM32.208 14.9568C32.5773 14.5875 33.1743 14.5875 33.5435 14.9568C33.9128 15.326 33.9128 15.923 33.5435 16.2922L15.7923 34.0434C15.4231 34.4127 14.8261 34.4127 14.4569 34.0434C14.0876 33.6742 14.0876 33.0772 14.4569 32.708L32.208 14.9568ZM29.4204 25.3478C30.71 25.3478 31.877 25.8701 32.7227 26.7158C33.5684 27.5615 34.0907 28.7286 34.0907 30.0181C34.0907 31.3076 33.5684 32.4747 32.7227 33.3204C31.877 34.1661 30.71 34.6884 29.4204 34.6884C28.1309 34.6884 26.9638 34.1661 26.1181 33.3204C25.2724 32.4747 24.7501 31.3076 24.7501 30.0181C24.7501 28.7286 25.2724 27.5615 26.1181 26.7158C26.9638 25.8701 28.1309 25.3478 29.4204 25.3478ZM31.3872 28.0531C30.8841 27.55 30.1876 27.24 29.4204 27.24C28.6532 27.24 27.9568 27.5518 27.4536 28.0531C26.9504 28.5563 26.6404 29.2508 26.6404 30.02C26.6404 30.7872 26.9523 31.4836 27.4536 31.9868C27.9568 32.4899 28.6532 32.7999 29.4204 32.7999C30.1876 32.7999 30.8841 32.4881 31.3872 31.9868C31.8904 31.4836 32.2004 30.7891 32.2004 30.02C32.2004 29.2508 31.8885 28.5563 31.3872 28.0531ZM20.5466 17.0175C20.0434 16.5144 19.347 16.2044 18.5798 16.2044C17.8106 16.2044 17.1161 16.5162 16.6129 17.0175C16.1098 17.5207 15.7998 18.2152 15.7998 18.9844C15.7998 19.7516 16.1116 20.448 16.6129 20.9512C17.1161 21.4544 17.8106 21.7643 18.5798 21.7643C19.347 21.7643 20.0434 21.4525 20.5466 20.9512C21.0498 20.448 21.3598 19.7516 21.3598 18.9844C21.3598 18.2152 21.0479 17.5207 20.5466 17.0175Z" fill="white"/>
</svg>
