<svg width="90" height="74" viewBox="0 0 90 74" fill="none" xmlns="http://www.w3.org/2000/svg">
<circle cx="30.5" cy="30.5" r="30.5" fill="url(#paint0_linear_260_4650)" fill-opacity="0.3"/>
<path d="M51.002 10.8472L56.2091 5.9261C57.978 4.25435 60.8966 5.26401 61.2543 7.67146V7.67146C61.5707 9.80095 63.9553 10.9195 65.7951 9.80155L69.1847 7.74183" stroke="#D3EFC6" stroke-width="3"/>
<path fill-rule="evenodd" clip-rule="evenodd" d="M12.4237 29.3202V30.2247H63.1252C63.7953 30.2247 64.337 30.7709 64.337 31.4389C64.337 32.1103 63.7953 32.6565 63.1252 32.6565H12.4237V40.3103L35.566 40.3068C35.8924 40.2998 36.2083 40.4216 36.4445 40.6512C36.6771 40.8808 36.809 41.1939 36.809 41.5209C36.809 41.848 36.6771 42.1645 36.4445 42.3907C36.2083 42.6203 35.8924 42.7455 35.566 42.7351H12.4237V64.7536C12.4167 66.5662 13.139 68.3056 14.4237 69.5789C15.7257 70.8661 17.4793 71.5793 19.3057 71.5724H80.6943C82.5207 71.5724 84.2706 70.8453 85.5589 69.5546C86.8506 68.2605 87.5763 66.507 87.5763 64.6806V42.7351H40.3743C40.048 42.7455 39.732 42.6203 39.4959 42.3907C39.2598 42.1645 39.1278 41.8479 39.1278 41.5209C39.1278 41.1939 39.2598 40.8808 39.4959 40.6512C39.732 40.4216 40.048 40.2998 40.3743 40.3068H87.5763V32.6566H67.9371C67.2669 32.6566 66.7218 32.1104 66.7218 31.439C66.7218 30.771 67.2669 30.2248 67.9371 30.2248H87.5763V29.3203C87.5763 27.4938 86.8506 25.7405 85.5589 24.4463C84.2707 23.1556 82.5207 22.4285 80.6943 22.4285H19.3057C15.5036 22.4285 12.4237 25.5142 12.4237 29.3202ZM10 64.7531V29.3202C10 24.1714 14.1667 20 19.3058 20H80.6945C83.1632 20 85.5313 20.9811 87.2743 22.7275C89.0208 24.4774 90 26.85 90 29.32V64.6799C90 67.1499 89.0208 69.5226 87.2743 71.2725C85.5313 73.0189 83.1632 74 80.6945 74H19.3058C16.8406 74.0069 14.4725 73.0363 12.719 71.2968C10.976 69.5678 9.9931 67.2093 10 64.7531ZM20.9823 53.2553C20.6559 53.2623 20.3365 53.1405 20.1038 52.9109C19.8677 52.6813 19.7358 52.3682 19.7358 52.0412C19.7358 51.7142 19.8677 51.3976 20.1038 51.1715C20.3365 50.9419 20.6559 50.8166 20.9823 50.8271H42.8535C43.1799 50.8166 43.4993 50.9419 43.7319 51.1715C43.968 51.3976 44.1 51.7142 44.1 52.0412C44.1 52.3682 43.968 52.6813 43.7319 52.9109C43.4993 53.1405 43.1799 53.2623 42.8535 53.2553H20.9823ZM20.9823 63.4831C20.6559 63.4901 20.3365 63.3648 20.1038 63.1387C19.8677 62.9091 19.7358 62.596 19.7358 62.2655C19.7358 61.9385 19.8677 61.6254 20.1038 61.3958C20.3365 61.1696 20.6559 61.0444 20.9823 61.0513H34.6908H34.6873C35.0172 61.0444 35.3331 61.1696 35.5658 61.3958C35.8019 61.6254 35.9338 61.9385 35.9338 62.2655C35.9338 62.596 35.8019 62.9091 35.5658 63.1387C35.3331 63.3648 35.0172 63.4901 34.6873 63.4831H20.9823ZM65.8571 50.7643C65.298 51.321 64.8154 51.9471 64.4196 52.6291C62.8258 55.3809 62.8258 58.7798 64.4196 61.5352C64.8154 62.217 65.298 62.8433 65.8606 63.3964C63.9543 63.8069 61.9682 63.3303 60.4543 62.1057C58.937 60.8776 58.0585 59.0303 58.0585 57.0821C58.0585 55.1304 58.937 53.2831 60.4543 52.0551C61.9682 50.8305 63.9543 50.3538 65.8606 50.7644L65.8571 50.7643ZM62.9439 48.3395C64.7599 48.0124 66.6279 48.2629 68.2946 49.0526C71.0411 47.7515 74.2633 47.9498 76.8294 49.578C79.3953 51.2061 80.9509 54.0379 80.9509 57.0821C80.9509 60.1262 79.3953 62.958 76.8294 64.5862C74.2634 66.2178 71.0412 66.4126 68.2946 65.1115C65.9855 66.2074 63.3154 66.2525 60.9716 65.2297C58.6279 64.2104 56.8397 62.2274 56.0619 59.7887C55.2807 57.3499 55.5932 54.6954 56.9126 52.5003C58.2286 50.3086 60.43 48.7917 62.9439 48.3429L62.9439 48.3395ZM78.5342 57.082C78.5377 59.3816 77.3189 61.5142 75.3293 62.6692C73.3432 63.8277 70.8918 63.8346 68.8987 62.6901C67.9091 62.1265 67.0862 61.3054 66.5098 60.3209C65.357 58.3135 65.357 55.847 66.5098 53.8431C67.0862 52.8551 67.9091 52.0376 68.8987 51.4704C69.3813 51.1921 69.8952 50.9799 70.4334 50.8373C72.3675 50.3224 74.43 50.7398 76.0168 51.9609C77.6036 53.1855 78.5307 55.0747 78.5342 57.082Z" fill="#096CE3"/>
<defs>
<linearGradient id="paint0_linear_260_4650" x1="52" y1="3" x2="5.5" y2="59" gradientUnits="userSpaceOnUse">
<stop stop-color="#76D232"/>
<stop offset="1" stop-color="#0569E8"/>
</linearGradient>
</defs>
</svg>
