<svg width="80" height="96" viewBox="0 0 80 96" fill="none" xmlns="http://www.w3.org/2000/svg">
<circle cx="30.5" cy="31.3733" r="30.5" fill="url(#paint0_linear_260_4585)" fill-opacity="0.3"/>
<path d="M51.002 10.8477L56.2091 5.92659C57.978 4.25484 60.8966 5.2645 61.2543 7.67195V7.67195C61.5707 9.80143 63.9553 10.92 65.7951 9.80204L69.1847 7.74232" stroke="#D3EFC6" stroke-width="3"/>
<path d="M43.8157 57.1874C44.4211 57.1874 44.9095 57.6756 44.9095 58.2812V58.9569C45.8235 59.2812 46.5697 59.9999 46.9056 60.9452C47.1087 61.5155 46.8118 62.1405 46.2415 62.3436C45.6712 62.5468 45.0462 62.2499 44.8431 61.6796C44.6908 61.246 44.2767 60.9569 43.8158 60.9569C43.2142 60.9569 42.726 61.4452 42.726 62.0467C42.726 62.6483 43.2143 63.1365 43.8158 63.1365C45.6244 63.1365 47.097 64.6092 47.097 66.4177C47.097 67.8435 46.1829 69.0583 44.9095 69.5075V70.1833C44.9095 70.7888 44.4212 71.2771 43.8157 71.2771C43.2102 71.2771 42.7219 70.7888 42.7219 70.1833V69.5075C41.8117 69.1833 41.0657 68.4684 40.7297 67.527C40.5266 66.9606 40.8195 66.3317 41.386 66.1247C41.9524 65.9177 42.5813 66.2146 42.7883 66.781C42.9445 67.2146 43.3586 67.5075 43.8195 67.5075C44.421 67.5075 44.9133 67.0192 44.9133 66.4177C44.9133 65.8162 44.4211 65.3239 43.8195 65.3239C42.0109 65.3239 40.5422 63.8551 40.5422 62.0466C40.5422 60.6208 41.4562 59.406 42.7258 58.9568V58.281C42.7258 57.6756 43.214 57.1872 43.8196 57.1872L43.8157 57.1874ZM18.9017 61.3866C18.9017 58.1132 21.5619 55.453 24.8353 55.453C28.1087 55.453 30.765 58.1171 30.765 61.3866C30.765 64.66 28.1048 67.3163 24.8353 67.3163C21.5658 67.3163 18.9017 64.6561 18.9017 61.3866ZM21.0931 61.3866C21.0931 63.4491 22.7728 65.1288 24.8392 65.1288C26.9056 65.1288 28.5814 63.4491 28.5814 61.3866C28.5814 59.3241 26.9017 57.6405 24.8392 57.6405C22.7767 57.6405 21.0931 59.3202 21.0931 61.3866ZM38.4881 43.0426C37.4881 43.0426 36.6717 42.2261 36.6717 41.2223C36.6717 40.2184 37.4881 39.4059 38.4881 39.4059C39.2576 39.4059 39.9451 39.8902 40.2029 40.6129C40.406 41.1832 41.031 41.4761 41.6013 41.273C42.1716 41.0699 42.4645 40.4449 42.2614 39.8746C41.82 38.6402 40.8044 37.7184 39.5778 37.3707V36.2027C39.5778 35.5972 39.0895 35.1089 38.484 35.1089C37.8785 35.1089 37.3902 35.5972 37.3902 36.2027V37.3668C35.7105 37.8434 34.48 39.3902 34.48 41.2184C34.48 43.4293 36.2769 45.2262 38.4839 45.2262C39.4878 45.2262 40.3042 46.0426 40.3042 47.0465C40.3042 48.0504 39.4878 48.8668 38.4839 48.8668C37.7183 48.8668 37.0308 48.3824 36.773 47.6559C36.5699 47.0856 35.9449 46.7926 35.3746 46.9919C34.8043 47.195 34.5074 47.82 34.7106 48.3903C35.152 49.6286 36.1676 50.5505 37.3903 50.8981V52.0661C37.3903 52.6715 37.8785 53.1599 38.4841 53.1599C39.0896 53.1599 39.5779 52.6716 39.5779 52.0661V50.902C41.2576 50.4254 42.492 48.8786 42.492 47.0465C42.492 44.8356 40.6951 43.0387 38.4842 43.0387L38.4881 43.0426ZM79.0471 47.9723L72.0119 48.9137C71.965 48.9215 71.9142 48.9254 71.8673 48.9254C71.6291 48.9254 71.3947 48.8473 71.2033 48.6988C70.9728 48.523 70.8205 48.2613 70.7814 47.9762L70.6056 46.6598L64.8947 47.5777C64.0158 47.7223 63.1174 47.8277 62.215 47.8277C60.5353 47.8277 58.84 47.4566 57.2306 46.2418L52.7931 42.9059C52.8283 43.3161 52.8478 43.7262 52.8478 44.1364C52.8478 48.0153 51.3244 51.6325 48.6173 54.3164C52.2931 56.1016 54.8361 59.875 54.8361 64.2305C54.8361 70.3047 49.8947 75.2505 43.8161 75.2505C37.738 75.2505 32.8001 70.3052 32.8001 64.2305C32.8001 61.918 33.5188 59.7735 34.7376 58C28.5774 56.3359 24.1326 50.6797 24.1326 44.141C24.1326 41.3363 24.9373 38.6449 26.4373 36.3402C23.8514 36.266 22.1092 34.6449 21.6521 32.8246C21.1208 30.7035 22.2732 27.9887 26.0427 26.7074C30.4568 25.2113 33.8279 23.9027 36.5387 22.8519C47.4367 18.6253 48.5937 18.4652 62.4257 25.1878C63.5116 25.7152 65.3163 25.9066 67.8085 25.7621L67.5351 23.723C67.496 23.4339 67.5741 23.1448 67.7499 22.9144C67.9257 22.6839 68.1874 22.5316 68.4726 22.4925L75.5078 21.555C76.1054 21.4769 76.6562 21.8948 76.7383 22.4925L79.9883 46.7465C80.0664 47.3441 79.6484 47.8949 79.0508 47.977L79.0471 47.9723ZM43.8171 55.402C38.9499 55.402 34.989 59.3629 34.989 64.2301C34.989 69.0973 38.9499 73.0621 43.8171 73.0621C48.6843 73.0621 52.6491 69.1012 52.6491 64.2301C52.6491 59.359 48.6882 55.402 43.8171 55.402ZM50.2468 40.992L46.1296 37.8943C44.6921 36.8162 43.8015 35.0857 43.6608 33.242L29.5318 35.91C27.4615 38.16 26.3209 41.0662 26.3209 44.1366C26.3209 50.0468 30.6061 55.1096 36.3679 56.1206C38.3288 54.3159 40.946 53.2144 43.8132 53.2144C44.6569 53.2144 45.4773 53.312 46.2702 53.4917C49.0632 51.1714 50.6569 47.7886 50.6569 44.1362C50.6569 43.0698 50.5162 42.0151 50.2428 40.9917L50.2468 40.992ZM70.3168 44.492L68.098 27.933C65.0785 28.1244 62.9535 27.8744 61.4691 27.1517C48.1641 20.6869 47.5511 20.9251 37.3281 24.89C34.5976 25.9486 31.2031 27.265 26.7461 28.7767C24.5899 29.5111 23.4258 30.89 23.7773 32.2884C24.0624 33.429 25.3984 34.4095 27.4023 34.0853L43.8863 30.972C44.3706 29.2845 45.5621 27.9017 47.1285 27.2611C48.7691 26.5892 50.5621 26.847 52.0504 27.9642L59.5387 33.5931C60.023 33.9564 60.1168 34.6439 59.7574 35.1243C59.5426 35.4095 59.2144 35.5618 58.8824 35.5618C58.6519 35.5618 58.4215 35.4915 58.2262 35.3431L50.7379 29.7142C49.8668 29.0618 48.8824 28.9095 47.9606 29.2845C46.8864 29.7259 46.07 30.8197 45.8825 32.0736C45.652 33.6322 46.277 35.265 47.445 36.1439L58.55 44.4955C60.2766 45.7963 62.1281 45.8119 64.5539 45.4213L70.3234 44.4916L70.3168 44.492ZM77.6723 45.949L74.7114 23.863L69.8481 24.5114L70.1098 26.4723C70.1254 26.5348 70.141 26.5973 70.1449 26.6637C70.1488 26.6989 70.1488 26.734 70.1488 26.7692L72.6097 45.1402C72.6176 45.1675 72.6215 45.1949 72.6293 45.2222C72.6371 45.2691 72.641 45.316 72.641 45.3628L72.8051 46.5972L77.6684 45.9449L77.6723 45.949ZM59.7273 77.242C60.5398 79.2693 59.7702 82.113 56.2117 83.8942C52.0476 85.9801 48.8836 87.734 46.3445 89.1442C40.8562 92.1911 37.9929 93.6912 34.2505 93.6912C31.0239 93.6912 27.1489 92.574 20.3755 90.3631C19.2232 89.9841 17.4497 90.0427 14.9693 90.5388L15.5161 92.5115C15.6763 93.0936 15.3365 93.6951 14.7544 93.8592L7.91462 95.7537C7.81697 95.7811 7.71931 95.7928 7.62165 95.7928C7.43415 95.7928 7.25056 95.7459 7.08259 95.6522C6.82868 95.5076 6.64509 95.2694 6.56696 94.992L0.0396615 71.402C-0.0384635 71.1208 0.000599042 70.8239 0.141222 70.57C0.285752 70.3161 0.524032 70.1325 0.801382 70.0544L7.64118 68.1638C8.22321 68.0036 8.82478 68.3434 8.98888 68.9255L9.34435 70.2146L14.8717 68.5154C17.3092 67.7693 19.942 67.2849 22.6529 68.7966L34.7939 75.5505C36.3603 76.4255 37.4814 78.0193 37.8681 79.8239L53.1801 74.6911C53.1879 74.6872 53.1957 74.6872 53.2035 74.6833C56.4144 73.6911 58.9183 75.2224 59.7269 77.2458L59.7273 77.242ZM13.1103 92.0389L7.54386 71.926C7.54386 71.926 7.53996 71.9181 7.53996 71.9142C7.53605 71.8986 7.53214 71.883 7.52824 71.8674L7.16886 70.5666L2.43836 71.8752L8.38366 93.3552L13.1142 92.0427L13.1103 92.0389ZM57.6963 78.059C57.2588 76.9692 55.8018 76.1762 53.8604 76.7699L37.9544 82.1058C37.7044 83.8402 36.7122 85.3753 35.2513 86.223C34.4935 86.6644 33.6654 86.8831 32.8255 86.8831C31.9661 86.8831 31.095 86.6526 30.2708 86.1956L22.0911 81.6409C21.5637 81.3479 21.3723 80.68 21.6653 80.1526C21.9583 79.6253 22.6262 79.4339 23.1536 79.7268L31.3333 84.2815C32.2864 84.8128 33.2864 84.8284 34.1458 84.3284C35.1497 83.7464 35.8099 82.5511 35.8216 81.2815C35.8411 79.7073 34.9974 78.1721 33.72 77.4612L21.579 70.7073C19.6884 69.6526 17.8524 69.887 15.5048 70.6058L9.91888 72.3206L14.3759 88.4225C17.3525 87.8171 19.4892 87.7702 21.0478 88.2819C35.1098 92.8678 35.6848 92.5514 45.2748 87.2272C47.8334 85.8053 51.017 84.0397 55.2279 81.9342C57.2631 80.9186 58.2318 79.3951 57.6927 78.0553L57.6963 78.059Z" fill="#096CE3"/>
<defs>
<linearGradient id="paint0_linear_260_4585" x1="52" y1="3.87329" x2="5.5" y2="59.8733" gradientUnits="userSpaceOnUse">
<stop stop-color="#76D232"/>
<stop offset="1" stop-color="#0569E8"/>
</linearGradient>
</defs>
</svg>
