<svg width="87" height="93" viewBox="0 0 87 93" fill="none" xmlns="http://www.w3.org/2000/svg">
<circle cx="30.5" cy="30.5" r="30.5" fill="url(#paint0_linear_260_4617)" fill-opacity="0.3"/>
<path d="M51.002 10.8467L56.2091 5.92561C57.978 4.25386 60.8966 5.26352 61.2543 7.67097V7.67097C61.5707 9.80046 63.9553 10.919 65.7951 9.80106L69.1847 7.74134" stroke="#D3EFC6" stroke-width="3"/>
<mask id="path-3-inside-1_260_4617" fill="white">
<path d="M11.0036 57.627C11.0036 56.6777 11.7818 55.9062 12.7436 55.9062C13.7053 55.9062 14.4836 56.6744 14.4836 57.6237C15.0851 66.9857 19.4624 75.2279 26.0555 80.991C32.6758 86.7775 41.5356 90.0714 51.0613 89.5013L51.1632 89.4946C60.6515 88.9009 68.9984 84.5803 74.8405 78.0724C80.7029 71.5379 84.0434 62.7928 83.4658 53.387L83.459 53.2863C82.8575 43.9243 78.4802 35.682 71.8871 29.919C65.2668 24.1325 56.407 20.8386 46.8813 21.4086L46.7658 21.4154C45.4743 21.4959 44.1829 21.6502 42.9085 21.8749C42.0317 22.0259 41.1685 22.2137 40.3188 22.4284L43.2041 24.3338C43.9994 24.8604 44.2135 25.9238 43.6799 26.7087C43.1464 27.4937 42.069 27.7051 41.2738 27.1784L35.3503 23.2737C34.5279 22.784 34.2628 21.7307 34.759 20.9189L38.4802 14.8306C38.9764 14.0188 40.0436 13.7571 40.866 14.2469C41.6884 14.7366 41.9535 15.79 41.4573 16.6017L40.0095 18.97C40.7674 18.7888 41.532 18.6312 42.3069 18.497C43.6764 18.2588 45.0936 18.0878 46.5448 18.0005L46.7725 17.9838C57.2126 17.39 66.9184 21.0128 74.1812 27.3595C81.4369 33.7028 86.249 42.7663 86.919 53.0549L86.9359 53.2897C87.5375 63.5947 83.8672 73.1783 77.4337 80.3471C71.0072 87.5089 61.8249 92.2622 51.4014 92.92L51.1635 92.9368C40.7234 93.5305 31.0176 89.9077 23.7548 83.561C16.4991 77.2177 11.6869 68.1542 11.017 57.8656L11 57.6308L11.0036 57.627ZM47.2315 43.4208C47.2315 42.4714 48.0098 41.7033 48.9715 41.7033C49.9333 41.7033 50.7115 42.4715 50.7115 43.4208V44.5143C51.8331 44.8129 52.8322 45.3965 53.6241 46.1781C54.647 47.1945 55.3335 48.543 55.5035 50.0458C55.6088 50.9851 54.9189 51.8337 53.9674 51.9377C53.0158 52.0417 52.156 51.3608 52.0507 50.4215C51.9725 49.7137 51.6462 49.0798 51.1671 48.6034C50.6811 48.1304 50.0388 47.8084 49.3251 47.7313C48.6114 47.6541 47.9113 47.8252 47.337 48.1875C46.7626 48.5464 46.3038 49.0965 46.0728 49.764C45.8553 50.3947 45.8858 51.0589 46.3446 51.6862L46.4058 51.7767C46.9598 52.4812 47.9827 53.1923 49.6377 53.8699C51.9996 54.8394 53.5256 55.9934 54.4194 57.221C55.636 58.8882 55.7312 60.6224 55.1602 62.2561C54.664 63.6885 53.6921 64.8558 52.4686 65.6207C51.9282 65.9595 51.3369 66.2178 50.715 66.3888V67.4891C50.715 68.4384 49.9368 69.2066 48.975 69.2066C48.0132 69.2066 47.235 68.4384 47.235 67.4891V66.3955C46.1134 66.097 45.1143 65.5133 44.3225 64.7317L44.2239 64.6277C43.2553 63.6281 42.6062 62.3199 42.4431 60.8674C42.3377 59.9281 43.0276 59.0795 43.9792 58.9755C44.9307 58.8715 45.7905 59.5524 45.8959 60.4917C45.9706 61.1659 46.2663 61.7731 46.7115 62.2394L46.7829 62.3031C47.2655 62.7795 47.9078 63.1015 48.6215 63.1786C49.3351 63.2558 50.0352 63.0847 50.6096 62.7258C51.1839 62.3668 51.6393 61.8167 51.8738 61.1458C52.0913 60.5152 52.0607 59.851 51.6019 59.2237C51.0718 58.4857 50.0318 57.7444 48.3088 57.0366C46.0284 56.1041 44.5296 54.9971 43.6257 53.8163L43.5204 53.6855C42.3105 52.0183 42.2187 50.2841 42.7863 48.647C43.2825 47.2146 44.2544 46.0507 45.4779 45.2825C46.0183 44.9437 46.6096 44.6854 47.2315 44.5143V43.4141L47.2315 43.4208ZM62.6741 77.7775C61.8585 78.2739 60.7914 78.0224 60.2884 77.2206C59.7854 76.4156 60.0403 75.3622 60.8526 74.8658L61.1007 74.7148C61.9163 74.2184 62.9834 74.47 63.4864 75.2717C63.9894 76.0767 63.7345 77.1301 62.9222 77.6265L62.6741 77.7775ZM69.1448 72.3264C68.5263 73.0476 67.4286 73.1382 66.6979 72.5277C65.9673 71.9172 65.8755 70.8336 66.494 70.1125C68.2205 68.0997 69.6036 65.7852 70.5382 63.2626C71.4388 60.8373 71.9316 58.2074 71.9316 55.4601C71.9316 49.1973 69.3623 43.5279 65.2128 39.4325C61.0565 35.33 55.3164 32.794 48.9715 32.794C44.4107 32.794 40.1626 34.1022 36.6008 36.3564C32.9101 38.6911 29.9399 42.0355 28.0979 45.9907C27.7003 46.8494 26.6706 47.2285 25.8006 46.836C24.9306 46.4435 24.5465 45.4271 24.9441 44.5684C27.0682 40.0063 30.4837 36.1553 34.7248 33.4717C38.8403 30.8686 43.7337 29.3557 48.9746 29.3557C56.2677 29.3557 62.8747 32.2774 67.6598 36.9972L67.67 37.0072C72.455 41.7337 75.415 48.2585 75.415 55.4565C75.415 58.6064 74.8441 61.6355 73.8041 64.4399C72.7268 67.3448 71.1364 70.0085 69.1448 72.3264ZM22.7352 52.2094C22.8507 51.2702 23.7207 50.5993 24.6723 50.7133C25.6239 50.8274 26.3036 51.6861 26.188 52.6254C26.1269 53.1185 26.0793 53.5915 26.0521 54.0309C26.0249 54.457 26.0113 54.9333 26.0113 55.4566C26.0113 61.7161 28.5839 67.3855 32.7369 71.4842C36.8898 75.5834 42.6298 78.1228 48.9712 78.1228C49.9092 78.1228 50.82 78.0691 51.7002 77.9685C52.628 77.8611 53.5183 77.7035 54.3714 77.5022C55.3026 77.2842 56.2371 77.8511 56.458 78.7702C56.6789 79.6893 56.1046 80.6118 55.1734 80.8298C54.1504 81.0714 53.1207 81.2559 52.0977 81.3766C51.0578 81.4974 50.0145 81.5611 48.9746 81.5611C41.6747 81.5611 35.0649 78.6394 30.2798 73.9163C25.4948 69.1932 22.5348 62.665 22.5348 55.4601C22.5348 54.9603 22.5552 54.4135 22.5892 53.8332C22.6265 53.2563 22.6775 52.7162 22.7387 52.2131L22.7352 52.2094Z"/>
</mask>
<path d="M11.0036 57.627C11.0036 56.6777 11.7818 55.9062 12.7436 55.9062C13.7053 55.9062 14.4836 56.6744 14.4836 57.6237C15.0851 66.9857 19.4624 75.2279 26.0555 80.991C32.6758 86.7775 41.5356 90.0714 51.0613 89.5013L51.1632 89.4946C60.6515 88.9009 68.9984 84.5803 74.8405 78.0724C80.7029 71.5379 84.0434 62.7928 83.4658 53.387L83.459 53.2863C82.8575 43.9243 78.4802 35.682 71.8871 29.919C65.2668 24.1325 56.407 20.8386 46.8813 21.4086L46.7658 21.4154C45.4743 21.4959 44.1829 21.6502 42.9085 21.8749C42.0317 22.0259 41.1685 22.2137 40.3188 22.4284L43.2041 24.3338C43.9994 24.8604 44.2135 25.9238 43.6799 26.7087C43.1464 27.4937 42.069 27.7051 41.2738 27.1784L35.3503 23.2737C34.5279 22.784 34.2628 21.7307 34.759 20.9189L38.4802 14.8306C38.9764 14.0188 40.0436 13.7571 40.866 14.2469C41.6884 14.7366 41.9535 15.79 41.4573 16.6017L40.0095 18.97C40.7674 18.7888 41.532 18.6312 42.3069 18.497C43.6764 18.2588 45.0936 18.0878 46.5448 18.0005L46.7725 17.9838C57.2126 17.39 66.9184 21.0128 74.1812 27.3595C81.4369 33.7028 86.249 42.7663 86.919 53.0549L86.9359 53.2897C87.5375 63.5947 83.8672 73.1783 77.4337 80.3471C71.0072 87.5089 61.8249 92.2622 51.4014 92.92L51.1635 92.9368C40.7234 93.5305 31.0176 89.9077 23.7548 83.561C16.4991 77.2177 11.6869 68.1542 11.017 57.8656L11 57.6308L11.0036 57.627ZM47.2315 43.4208C47.2315 42.4714 48.0098 41.7033 48.9715 41.7033C49.9333 41.7033 50.7115 42.4715 50.7115 43.4208V44.5143C51.8331 44.8129 52.8322 45.3965 53.6241 46.1781C54.647 47.1945 55.3335 48.543 55.5035 50.0458C55.6088 50.9851 54.9189 51.8337 53.9674 51.9377C53.0158 52.0417 52.156 51.3608 52.0507 50.4215C51.9725 49.7137 51.6462 49.0798 51.1671 48.6034C50.6811 48.1304 50.0388 47.8084 49.3251 47.7313C48.6114 47.6541 47.9113 47.8252 47.337 48.1875C46.7626 48.5464 46.3038 49.0965 46.0728 49.764C45.8553 50.3947 45.8858 51.0589 46.3446 51.6862L46.4058 51.7767C46.9598 52.4812 47.9827 53.1923 49.6377 53.8699C51.9996 54.8394 53.5256 55.9934 54.4194 57.221C55.636 58.8882 55.7312 60.6224 55.1602 62.2561C54.664 63.6885 53.6921 64.8558 52.4686 65.6207C51.9282 65.9595 51.3369 66.2178 50.715 66.3888V67.4891C50.715 68.4384 49.9368 69.2066 48.975 69.2066C48.0132 69.2066 47.235 68.4384 47.235 67.4891V66.3955C46.1134 66.097 45.1143 65.5133 44.3225 64.7317L44.2239 64.6277C43.2553 63.6281 42.6062 62.3199 42.4431 60.8674C42.3377 59.9281 43.0276 59.0795 43.9792 58.9755C44.9307 58.8715 45.7905 59.5524 45.8959 60.4917C45.9706 61.1659 46.2663 61.7731 46.7115 62.2394L46.7829 62.3031C47.2655 62.7795 47.9078 63.1015 48.6215 63.1786C49.3351 63.2558 50.0352 63.0847 50.6096 62.7258C51.1839 62.3668 51.6393 61.8167 51.8738 61.1458C52.0913 60.5152 52.0607 59.851 51.6019 59.2237C51.0718 58.4857 50.0318 57.7444 48.3088 57.0366C46.0284 56.1041 44.5296 54.9971 43.6257 53.8163L43.5204 53.6855C42.3105 52.0183 42.2187 50.2841 42.7863 48.647C43.2825 47.2146 44.2544 46.0507 45.4779 45.2825C46.0183 44.9437 46.6096 44.6854 47.2315 44.5143V43.4141L47.2315 43.4208ZM62.6741 77.7775C61.8585 78.2739 60.7914 78.0224 60.2884 77.2206C59.7854 76.4156 60.0403 75.3622 60.8526 74.8658L61.1007 74.7148C61.9163 74.2184 62.9834 74.47 63.4864 75.2717C63.9894 76.0767 63.7345 77.1301 62.9222 77.6265L62.6741 77.7775ZM69.1448 72.3264C68.5263 73.0476 67.4286 73.1382 66.6979 72.5277C65.9673 71.9172 65.8755 70.8336 66.494 70.1125C68.2205 68.0997 69.6036 65.7852 70.5382 63.2626C71.4388 60.8373 71.9316 58.2074 71.9316 55.4601C71.9316 49.1973 69.3623 43.5279 65.2128 39.4325C61.0565 35.33 55.3164 32.794 48.9715 32.794C44.4107 32.794 40.1626 34.1022 36.6008 36.3564C32.9101 38.6911 29.9399 42.0355 28.0979 45.9907C27.7003 46.8494 26.6706 47.2285 25.8006 46.836C24.9306 46.4435 24.5465 45.4271 24.9441 44.5684C27.0682 40.0063 30.4837 36.1553 34.7248 33.4717C38.8403 30.8686 43.7337 29.3557 48.9746 29.3557C56.2677 29.3557 62.8747 32.2774 67.6598 36.9972L67.67 37.0072C72.455 41.7337 75.415 48.2585 75.415 55.4565C75.415 58.6064 74.8441 61.6355 73.8041 64.4399C72.7268 67.3448 71.1364 70.0085 69.1448 72.3264ZM22.7352 52.2094C22.8507 51.2702 23.7207 50.5993 24.6723 50.7133C25.6239 50.8274 26.3036 51.6861 26.188 52.6254C26.1269 53.1185 26.0793 53.5915 26.0521 54.0309C26.0249 54.457 26.0113 54.9333 26.0113 55.4566C26.0113 61.7161 28.5839 67.3855 32.7369 71.4842C36.8898 75.5834 42.6298 78.1228 48.9712 78.1228C49.9092 78.1228 50.82 78.0691 51.7002 77.9685C52.628 77.8611 53.5183 77.7035 54.3714 77.5022C55.3026 77.2842 56.2371 77.8511 56.458 78.7702C56.6789 79.6893 56.1046 80.6118 55.1734 80.8298C54.1504 81.0714 53.1207 81.2559 52.0977 81.3766C51.0578 81.4974 50.0145 81.5611 48.9746 81.5611C41.6747 81.5611 35.0649 78.6394 30.2798 73.9163C25.4948 69.1932 22.5348 62.665 22.5348 55.4601C22.5348 54.9603 22.5552 54.4135 22.5892 53.8332C22.6265 53.2563 22.6775 52.7162 22.7387 52.2131L22.7352 52.2094Z" fill="#096CE3" stroke="white" mask="url(#path-3-inside-1_260_4617)"/>
<defs>
<linearGradient id="paint0_linear_260_4617" x1="52" y1="3" x2="5.5" y2="59" gradientUnits="userSpaceOnUse">
<stop stop-color="#76D232"/>
<stop offset="1" stop-color="#0569E8"/>
</linearGradient>
</defs>
</svg>
