<svg width="87" height="88" viewBox="0 0 87 88" fill="none" xmlns="http://www.w3.org/2000/svg">
<circle cx="30.5" cy="31.1218" r="30.5" fill="url(#paint0_linear_0_1)" fill-opacity="0.3"/>
<path fill-rule="evenodd" clip-rule="evenodd" d="M21.8281 23.2517V79.4047C21.8281 83.9626 25.5755 87.6551 30.2192 87.6551H73.7818C78.4024 87.6551 82.1722 83.9626 82.1722 79.4047C82.1722 77.1133 82.1722 75.1518 82.1722 75.1518C82.1722 74.5281 81.6435 74.0219 81.0228 74.0219H75.667V58.1425C82.0117 57.5708 87 52.3168 87 45.9262C87 39.5379 82.0117 34.2816 75.667 33.7099V23.2517C75.667 22.628 75.1612 22.1218 74.5175 22.1218H22.9775C22.3339 22.1218 21.8281 22.628 21.8281 23.2517ZM36.7705 85.3953H73.7818C77.138 85.3953 79.8734 82.713 79.8734 79.4047V76.2817H39.4145V79.4047C39.4145 81.7639 38.4026 83.8926 36.7705 85.3953ZM73.3681 33.7099V24.3816H24.1269V79.4069C24.1269 82.713 26.8399 85.3953 30.2192 85.3953H31.0234C34.3797 85.3953 37.1156 82.713 37.1156 79.4047V75.1518C37.1156 74.5281 37.6214 74.0219 38.2651 74.0219H73.3681V58.1425C67.0234 57.5708 62.0345 52.3168 62.0345 45.9262C62.0345 39.5379 67.0234 34.2816 73.3681 33.7099ZM32.9546 65.4642H65.2302C65.8509 65.4642 66.3796 64.958 66.3796 64.3343C66.3796 63.7106 65.8509 63.2044 65.2302 63.2044H32.9546C32.311 63.2044 31.8052 63.7106 31.8052 64.3343C31.8052 64.958 32.311 65.4642 32.9546 65.4642ZM74.5175 35.92C80.1497 35.92 84.7012 40.4034 84.7012 45.9262C84.7012 51.4514 80.1497 55.9347 74.5175 55.9347C68.9084 55.9347 64.3334 51.4514 64.3334 45.9262C64.3334 40.4034 68.9084 35.92 74.5175 35.92ZM32.9546 55.6839H57.598C58.2186 55.6839 58.7474 55.1777 58.7474 54.554C58.7474 53.9303 58.2186 53.4241 57.598 53.4241H32.9546C32.311 53.4241 31.8052 53.9303 31.8052 54.554C31.8052 55.1777 32.311 55.6839 32.9546 55.6839ZM73.3681 39.809H73.3451C72.3566 39.809 71.4138 40.1955 70.7241 40.8824C70.0115 41.5694 69.6208 42.5004 69.6208 43.4699C69.6208 43.4744 69.6208 43.4789 69.6208 43.4789C69.6208 44.4506 70.0115 45.3816 70.7241 46.0686C71.4138 46.7533 72.3566 47.1397 73.3451 47.1397H75.7584C76.517 47.1397 77.1149 47.7318 77.1149 48.4617C77.1149 49.1916 76.517 49.7836 75.7584 49.7836H71.644C71.0003 49.7836 70.4946 50.2898 70.4946 50.9135C70.4946 51.5372 71.0003 52.0434 71.644 52.0434H73.3681V52.8366C73.3681 53.4603 73.8969 53.9665 74.5175 53.9665C75.1612 53.9665 75.667 53.4603 75.667 52.8366V52.0434H75.7584C77.7814 52.0434 79.4138 50.4412 79.4138 48.4617C79.4138 46.4844 77.7814 44.8799 75.7584 44.8799C74.9998 44.8799 74.1267 44.8799 73.3451 44.8799C72.9773 44.8799 72.6091 44.7331 72.3562 44.4709C72.0804 44.2065 71.9196 43.8518 71.9196 43.4789V43.4699C71.9196 43.0993 72.0804 42.7422 72.3562 42.4801C72.6091 42.2179 72.9773 42.0688 73.3451 42.0688H76.9078C77.5285 42.0688 78.0573 41.5626 78.0573 40.9389C78.0573 40.3152 77.5285 39.809 76.9078 39.809H75.667V39.0181C75.667 38.3944 75.1612 37.8882 74.5175 37.8882C73.8969 37.8882 73.3681 38.3944 73.3681 39.0181V39.809ZM32.9546 45.9059H55.8048C56.4485 45.9059 56.9542 45.3997 56.9542 44.776C56.9542 44.1523 56.4485 43.6461 55.8048 43.6461H32.9546C32.311 43.6461 31.8052 44.1523 31.8052 44.776C31.8052 45.3997 32.311 45.9059 32.9546 45.9059ZM32.9546 36.1279H59.8738C60.4944 36.1279 61.0232 35.6217 61.0232 34.998C61.0232 34.3743 60.4944 33.8681 59.8738 33.8681H32.9546C32.311 33.8681 31.8052 34.3743 31.8052 34.998C31.8052 35.6217 32.311 36.1279 32.9546 36.1279Z" fill="#096CE3"/>
<defs>
<linearGradient id="paint0_linear_0_1" x1="52" y1="3.62182" x2="5.5" y2="59.6218" gradientUnits="userSpaceOnUse">
<stop stop-color="#76D232"/>
<stop offset="1" stop-color="#0569E8"/>
</linearGradient>
</defs>
</svg>
