<svg width="72" height="77" viewBox="0 0 72 77" fill="none" xmlns="http://www.w3.org/2000/svg">
<circle cx="30.7812" cy="30.5" r="30.5" fill="url(#paint0_linear_260_5370)" fill-opacity="0.3"/>
<path d="M56.5684 76.4353C55.7152 76.4353 54.8784 76.1033 54.2501 75.4723L47.1529 68.3722C46.4176 67.6369 45.3997 67.2172 44.3571 67.2172H22.9986C19.3689 67.2172 16.4141 64.2624 16.4141 60.6327V43.1287C16.4141 42.4016 17.0039 41.8117 17.731 41.8117C18.458 41.8117 19.0479 42.4016 19.0479 43.1287V60.6327C19.0479 62.8111 20.8202 64.5834 22.9986 64.5834H44.3571C46.0938 64.5834 47.7921 65.2858 49.0157 66.5094L56.113 73.6095C56.3901 73.8866 56.7056 73.796 56.829 73.7467C56.9525 73.6973 57.2351 73.5354 57.2351 73.1458V67.2197C57.2351 65.7684 58.4175 64.5859 59.8689 64.5859H65.1365C67.3149 64.5859 69.0873 62.8136 69.0873 60.6352V34.2941C69.0873 32.1157 67.3149 30.3434 65.1365 30.3434H47.6353C46.9082 30.3434 46.3184 29.7536 46.3184 29.0265C46.3184 28.2995 46.9083 27.7096 47.6353 27.7096H65.1365C68.7663 27.7096 71.7211 30.6644 71.7211 34.2941V60.6352C71.7211 64.2649 68.7663 67.2197 65.1365 67.2197H59.8689V73.1458C59.8689 74.4791 59.0705 75.6699 57.8332 76.1802C57.4216 76.3503 56.9909 76.4326 56.5657 76.4326L56.5684 76.4353Z" fill="#096CE3"/>
<path d="M61.1847 40.8787H46.356C45.6289 40.8787 45.0391 40.2888 45.0391 39.5618C45.0391 38.8347 45.6289 38.2449 46.356 38.2449H61.1847C61.9118 38.2449 62.5016 38.8347 62.5016 39.5618C62.5016 40.2888 61.9118 40.8787 61.1847 40.8787Z" fill="#096CE3"/>
<path d="M60.7143 49H27.2857C26.5759 49 26 47.2083 26 45C26 42.7917 26.5759 41 27.2857 41H60.7143C61.4241 41 62 42.7917 62 45C62 47.2083 61.4241 49 60.7143 49Z" fill="#096CE3"/>
<path d="M61.1816 56.6815H26.9419C26.2148 56.6815 25.625 56.0917 25.625 55.3646C25.625 54.6376 26.2149 54.0477 26.9419 54.0477H61.1816C61.9086 54.0477 62.4985 54.6376 62.4985 55.3646C62.4985 56.0917 61.9086 56.6815 61.1816 56.6815Z" fill="#096CE3"/>
<path d="M24.3077 38.2448H20.357C18.1786 38.2448 16.4062 36.4725 16.4062 34.2941V31.2158C16.4062 29.545 16.8589 27.9044 17.7204 26.4722L20.0854 22.5297C20.6039 21.6655 21.556 21.125 22.5655 21.125C23.3804 21.125 24.1623 21.4707 24.7083 22.077C25.257 22.6834 25.5231 23.4954 25.4436 24.3076L25.0951 27.7919C26.8976 28.1595 28.2584 29.7563 28.2584 31.663V34.2968C28.2584 36.4753 26.4861 38.2476 24.3077 38.2476L24.3077 38.2448ZM22.5655 23.7588C22.475 23.7588 22.3899 23.8055 22.3433 23.885L19.9783 27.8275C19.3638 28.8509 19.0401 30.0224 19.0401 31.2158V34.2941C19.0401 35.0212 19.6299 35.611 20.357 35.611H24.3077C25.0348 35.611 25.6246 35.0211 25.6246 34.2941V31.6603C25.6246 30.9332 25.0348 30.3434 24.3077 30.3434H23.6492C23.2789 30.3434 22.9222 30.187 22.6726 29.9099C22.4229 29.6328 22.3022 29.2651 22.3378 28.8948L22.8235 24.0442C22.8317 23.9482 22.7933 23.8823 22.7576 23.8439C22.7219 23.8055 22.6616 23.7588 22.5655 23.7588Z" fill="#096CE3"/>
<path d="M38.7921 38.2448H34.8414C32.6629 38.2448 30.8906 36.4725 30.8906 34.2941V31.2158C30.8906 29.545 31.3433 27.9044 32.2048 26.4722L34.5698 22.5297C35.0883 21.6655 36.0403 21.125 37.0499 21.125C37.8648 21.125 38.6466 21.4707 39.1926 22.077C39.7414 22.6834 40.0075 23.4954 39.9279 24.3076L39.5795 27.7919C41.382 28.1595 42.7428 29.7563 42.7428 31.663V34.2968C42.7428 36.4753 40.9705 38.2476 38.7921 38.2476L38.7921 38.2448ZM37.0499 23.7588C36.9594 23.7588 36.8743 23.8055 36.8277 23.885L34.4627 27.8275C33.8482 28.8509 33.5244 30.0224 33.5244 31.2158V34.2941C33.5244 35.0212 34.1143 35.611 34.8413 35.611H38.7921C39.5192 35.611 40.109 35.0211 40.109 34.2941V31.6603C40.109 30.9332 39.5191 30.3434 38.7921 30.3434H38.1336C37.7632 30.3434 37.4065 30.187 37.1569 29.9099C36.9073 29.6328 36.7866 29.2651 36.8222 28.8948L37.3078 24.0442C37.3161 23.9482 37.2777 23.8823 37.242 23.8439C37.2063 23.8055 37.1459 23.7588 37.0499 23.7588Z" fill="#096CE3"/>
<defs>
<linearGradient id="paint0_linear_260_5370" x1="52.2812" y1="3" x2="5.78125" y2="59" gradientUnits="userSpaceOnUse">
<stop stop-color="#76D232"/>
<stop offset="1" stop-color="#0569E8"/>
</linearGradient>
</defs>
</svg>
