<svg width="594" height="528" viewBox="0 0 594 528" fill="none" xmlns="http://www.w3.org/2000/svg">
<path d="M60.9077 117.643C-37.6937 248.028 -11.926 433.674 118.459 532.275C248.844 630.877 434.49 605.109 533.091 474.724C631.693 344.339 605.925 158.694 475.54 60.0921C345.155 -38.5094 159.509 -12.7417 60.9077 117.643ZM446.438 409.194C416.465 448.827 371.977 474.931 322.758 481.763C273.539 488.594 223.623 475.594 183.989 445.622C144.356 415.65 118.252 371.161 111.42 321.942C104.589 272.724 117.589 222.807 147.561 183.173C177.533 143.54 222.022 117.436 271.241 110.604C320.46 103.773 370.376 116.773 410.01 146.745C449.643 176.718 475.747 221.206 482.579 270.425C489.41 319.644 476.41 369.561 446.438 409.194Z" fill="url(#paint0_linear_113_17967)" fill-opacity="0.2"/>
<defs>
<linearGradient id="paint0_linear_113_17967" x1="60.9077" y1="117.643" x2="533.091" y2="474.724" gradientUnits="userSpaceOnUse">
<stop stop-color="#1275D4"/>
<stop offset="0.421136" stop-color="white" stop-opacity="0"/>
<stop offset="1" stop-color="white" stop-opacity="0"/>
</linearGradient>
</defs>
</svg>
