<svg width="102" height="38" viewBox="0 0 102 38" fill="none" xmlns="http://www.w3.org/2000/svg">
<g clip-path="url(#clip0_192_5344)">
<path d="M34.1825 0H27.6719V38H34.1825V0Z" fill="white"/>
<path fill-rule="evenodd" clip-rule="evenodd" d="M0 8.14286C0 3.648 3.64596 0 8.1383 0H21.7021V5.97143H10.3085C8.20883 5.97143 6.51064 7.67057 6.51064 9.77143V13.5714H21.7021V19H6.51064V38H0V8.14286Z" fill="white"/>
<mask id="mask0_192_5344" style="mask-type:luminance" maskUnits="userSpaceOnUse" x="72" y="9" width="30" height="29">
<path d="M92.183 9.21777L102.003 9.22863L82.4713 38.0001L72.5859 37.9946L92.183 9.21777Z" fill="white"/>
</mask>
<g mask="url(#mask0_192_5344)">
<path d="M75.2787 39.8293L94.8758 11.0525L89.4936 7.38274L69.8966 36.1596L75.2787 39.8293ZM82.473 34.7427H72.5877V41.2516H82.473V34.7427ZM99.3138 7.39902L79.7819 36.1705L85.1695 39.8293L104.701 11.0579L99.3138 7.39902ZM92.1847 12.4747L102.005 12.4856V5.97131L92.1901 5.96045V12.4747H92.1847ZM72.5877 37.9944L69.8966 36.1596L66.4297 41.2462H72.5822V37.9944H72.5877ZM82.473 37.9999V41.257H84.1983L85.1695 39.8293L82.4784 37.9999H82.473ZM102.005 9.22845L104.696 11.0579L108.147 5.97674H102.005V9.22845ZM92.1847 9.21759V5.96045H90.4648L89.4936 7.38274L92.1847 9.21759Z" fill="url(#paint0_linear_192_5344)"/>
</g>
<path d="M95.7628 37.9999C99.2087 37.9999 102.002 35.2049 102.002 31.757C102.002 28.3092 99.2087 25.5142 95.7628 25.5142C92.3169 25.5142 89.5234 28.3092 89.5234 31.757C89.5234 35.2049 92.3169 37.9999 95.7628 37.9999Z" fill="url(#paint1_linear_192_5344)"/>
<mask id="mask1_192_5344" style="mask-type:luminance" maskUnits="userSpaceOnUse" x="72" y="9" width="14" height="13">
<path d="M78.9425 21.7142C82.3884 21.7142 85.1818 18.9192 85.1818 15.4714C85.1818 12.0235 82.3884 9.22852 78.9425 9.22852C75.4966 9.22852 72.7031 12.0235 72.7031 15.4714C72.7031 18.9192 75.4966 21.7142 78.9425 21.7142Z" fill="white"/>
</mask>
<g mask="url(#mask1_192_5344)">
<path d="M78.94 12.4855C80.5894 12.4855 81.924 13.8209 81.924 15.4712H88.4347C88.4347 10.2272 84.1811 5.97119 78.94 5.97119V12.4855ZM75.9559 15.4712C75.9559 13.8209 77.2906 12.4855 78.94 12.4855V5.97119C73.6989 5.97119 69.4453 10.2272 69.4453 15.4712H75.9559ZM78.94 18.4569C77.2906 18.4569 75.9559 17.1215 75.9559 15.4712H69.4453C69.4453 20.7152 73.6989 24.9712 78.94 24.9712V18.4569ZM81.924 15.4712C81.924 17.1215 80.5894 18.4569 78.94 18.4569V24.9712C84.1811 24.9712 88.4347 20.7152 88.4347 15.4712H81.924Z" fill="url(#paint2_linear_192_5344)"/>
</g>
<path fill-rule="evenodd" clip-rule="evenodd" d="M60.8937 29.3142C59.2498 31.3011 56.7703 32.5714 53.987 32.5714C49.0444 32.5714 45.0349 28.5597 45.0349 23.6142C45.0349 18.6688 49.0444 14.6571 53.987 14.6571C58.9297 14.6571 62.9392 18.6688 62.9392 23.6142C62.9392 24.4611 62.8198 25.2808 62.6028 26.0571H68.1585C68.2942 25.2645 68.3647 24.4448 68.3647 23.6142C68.3647 15.6668 61.93 9.22852 53.987 9.22852C46.0441 9.22852 39.6094 15.6668 39.6094 23.6142C39.6094 31.5617 46.0441 37.9999 53.987 37.9999C59.9063 37.9999 64.9846 34.4225 67.1928 29.3142H60.8937Z" fill="white"/>
<path d="M67.8211 20.6284H43.4062V26.057H67.8211V20.6284Z" fill="white"/>
</g>
<defs>
<linearGradient id="paint0_linear_192_5344" x1="87.2881" y1="5.96045" x2="87.2881" y2="41.257" gradientUnits="userSpaceOnUse">
<stop stop-color="#76D232"/>
<stop offset="1" stop-color="#0569E8"/>
</linearGradient>
<linearGradient id="paint1_linear_192_5344" x1="95.7628" y1="25.5142" x2="95.7628" y2="37.9999" gradientUnits="userSpaceOnUse">
<stop stop-color="#76D232"/>
<stop offset="1" stop-color="#0569E8"/>
</linearGradient>
<linearGradient id="paint2_linear_192_5344" x1="78.94" y1="5.97119" x2="78.94" y2="24.9712" gradientUnits="userSpaceOnUse">
<stop stop-color="#76D232"/>
<stop offset="1" stop-color="#0569E8"/>
</linearGradient>
<clipPath id="clip0_192_5344">
<rect width="102" height="38" fill="white"/>
</clipPath>
</defs>
</svg>
